<mxfile host="app.diagrams.net" modified="2023-05-08T08:14:36.515Z" agent="Mozilla/5.0 (Windows NT 10.0; Win64; x64) AppleWebKit/537.36 (KHTML, like Gecko) Chrome/112.0.0.0 Safari/537.36 Edg/112.0.1722.68" etag="hd6YzqhBwvmsaWns_uJf" version="21.2.9" type="github">
  <diagram name="第 1 页" id="oyyRL3EKb9Zoqq3U5nI3">
    <mxGraphModel dx="936" dy="502" grid="0" gridSize="10" guides="1" tooltips="1" connect="1" arrows="1" fold="1" page="1" pageScale="1" pageWidth="2336" pageHeight="1654" math="0" shadow="0">
      <root>
        <mxCell id="0" />
        <mxCell id="1" parent="0" />
        <mxCell id="uut4hfN15O6eYL7KADeR-7" value="ML-100k" style="text;html=1;strokeColor=none;fillColor=none;align=center;verticalAlign=middle;whiteSpace=wrap;rounded=0;" parent="1" vertex="1">
          <mxGeometry x="144" y="289" width="60" height="30" as="geometry" />
        </mxCell>
        <mxCell id="uut4hfN15O6eYL7KADeR-8" value="ML-100k" style="text;html=1;strokeColor=none;fillColor=none;align=center;verticalAlign=middle;whiteSpace=wrap;rounded=0;" parent="1" vertex="1">
          <mxGeometry x="439" y="289" width="60" height="30" as="geometry" />
        </mxCell>
        <mxCell id="uut4hfN15O6eYL7KADeR-9" value="ML-100k" style="text;html=1;strokeColor=none;fillColor=none;align=center;verticalAlign=middle;whiteSpace=wrap;rounded=0;" parent="1" vertex="1">
          <mxGeometry x="732" y="289" width="60" height="30" as="geometry" />
        </mxCell>
        <mxCell id="uut4hfN15O6eYL7KADeR-10" value="ML-100k" style="text;html=1;strokeColor=none;fillColor=none;align=center;verticalAlign=middle;whiteSpace=wrap;rounded=0;" parent="1" vertex="1">
          <mxGeometry x="1024" y="289" width="60" height="30" as="geometry" />
        </mxCell>
        <mxCell id="uut4hfN15O6eYL7KADeR-11" value="Music" style="text;html=1;strokeColor=none;fillColor=none;align=center;verticalAlign=middle;whiteSpace=wrap;rounded=0;" parent="1" vertex="1">
          <mxGeometry x="274" y="289" width="60" height="30" as="geometry" />
        </mxCell>
        <mxCell id="uut4hfN15O6eYL7KADeR-12" value="Music" style="text;html=1;strokeColor=none;fillColor=none;align=center;verticalAlign=middle;whiteSpace=wrap;rounded=0;" parent="1" vertex="1">
          <mxGeometry x="562" y="289" width="60" height="30" as="geometry" />
        </mxCell>
        <mxCell id="uut4hfN15O6eYL7KADeR-13" value="Music" style="text;html=1;strokeColor=none;fillColor=none;align=center;verticalAlign=middle;whiteSpace=wrap;rounded=0;" parent="1" vertex="1">
          <mxGeometry x="855" y="289" width="60" height="30" as="geometry" />
        </mxCell>
        <mxCell id="uut4hfN15O6eYL7KADeR-14" value="Music" style="text;html=1;strokeColor=none;fillColor=none;align=center;verticalAlign=middle;whiteSpace=wrap;rounded=0;" parent="1" vertex="1">
          <mxGeometry x="1154" y="289" width="60" height="30" as="geometry" />
        </mxCell>
        <mxCell id="uut4hfN15O6eYL7KADeR-15" value="&lt;font style=&quot;font-size: 18px;&quot;&gt;(a) Recall@10&lt;/font&gt;" style="text;html=1;strokeColor=none;fillColor=none;align=center;verticalAlign=middle;whiteSpace=wrap;rounded=0;" parent="1" vertex="1">
          <mxGeometry x="146" y="322" width="188" height="30" as="geometry" />
        </mxCell>
        <mxCell id="uut4hfN15O6eYL7KADeR-16" value="&lt;font style=&quot;font-size: 18px;&quot;&gt;(b) Recall@20&lt;/font&gt;" style="text;html=1;strokeColor=none;fillColor=none;align=center;verticalAlign=middle;whiteSpace=wrap;rounded=0;" parent="1" vertex="1">
          <mxGeometry x="439" y="322" width="188" height="30" as="geometry" />
        </mxCell>
        <mxCell id="uut4hfN15O6eYL7KADeR-17" value="&lt;font style=&quot;font-size: 18px;&quot;&gt;(c) MRR&lt;/font&gt;" style="text;html=1;strokeColor=none;fillColor=none;align=center;verticalAlign=middle;whiteSpace=wrap;rounded=0;" parent="1" vertex="1">
          <mxGeometry x="720" y="322" width="188" height="30" as="geometry" />
        </mxCell>
        <mxCell id="uut4hfN15O6eYL7KADeR-18" value="&lt;font style=&quot;font-size: 18px;&quot;&gt;(d) NDCG@10&lt;/font&gt;" style="text;html=1;strokeColor=none;fillColor=none;align=center;verticalAlign=middle;whiteSpace=wrap;rounded=0;" parent="1" vertex="1">
          <mxGeometry x="1010" y="319" width="188" height="30" as="geometry" />
        </mxCell>
        <mxCell id="3sAKrGf5FiUx43U5iRsO-6" value="" style="shape=image;verticalLabelPosition=bottom;labelBackgroundColor=default;verticalAlign=top;aspect=fixed;imageAspect=0;image=data:image/png,iVBORw0KGgoAAAANSUhEUgAAAQIAAAC4CAYAAAAIaeL3AAAV8UlEQVR4nO3dQWgbWYIG4D/LgtWdUymIQTETCDUFTeQwCEo5TOI0AbcCASEWAsKCZIUPIdMmTa/m2PjkQ2JCa+k2gRyGxksHewQNQYgORCswibTDgAtEiJRLuXIIKHUoUF26hXLyHky9uCzJkUqyXE7+Dxomkl699+pV/VX16pk5sbOzswMi+qT921E3gIiOHoOAiBgERMQgICIwCIgIDAIiAoOAiMAgICIwCIgIwL97KfTsxAlPlX3JRYxEvsQ7AiJiEBCRx0eDw5JOpyHLMpaXl1EoFPD8+XOYpgkAUFUViUQCiqL0LKvrOorFIgzDgG3bAABJkjAzM4Pr168jFAqNva56vY5OpwMAkGUZqqoimUyOZV8QTdIJL399eFhzBOl0GuFwGJ9//jkMw4AkSQgGgzAMAwAQCASwsrLSdVLXajWsrq6i0+kgEAhgenoaAFzl7ty5g2g0Ota6nDLtdtsVItls1tP+IToqvrojACBOqEQigfn5eQC7V+C7d++i0+mgXC6LzwHAsixxYqqqihs3boiTV9d1PHz4EKZp4tGjR64gGLWuTCaDeDwuvnMCQtM0VKtVXLp06RD2DtHh8OUcQSqVcp2AiqIgFosBAF69euX6bblcFlfnbDbruoIrioLbt28D2D3pa7XaWOqanZ11hQAARKNRXL58GQCwvb09dJ+JjpLv7ggA9HzOPn/+PCqVStfnzsnqnLz7KYoCWZZhGAZevHjRdVcwTF2vX78GANTrdSwtLXV932q1ALx/JCE6LnwZBF6cPn360OtwJgZt2xYTkkfVFqJx+miCYJLi8TgymcxRN4NobHw5R+DF27dv+37XbrcBAFNTU5NqDtGxcuyDwLkNf/nyZc/vdV13vdobxblz5wAAW1tbI22HyG+OfRDMzc0B2H0rkMvlXN85rw8BIBKJ9F0gNChVVREIBGDbNnK5HCzLcn1fq9WQy+Wg6/pI9RBN2rGfI1AUBalUCvl8HpqmYWFhoWtBUTgcxq1bt8ZSVzKZFHVpmgZZlgHsvjFwJhCvXLkycl1Ek3TsgwDYfQV46tQpPHv2DIZhuAJAVVXXOoFx1HXmzBlsbm72rOvChQtdryiJ/M7TEmMi+rgc+zkCIhodg4CIGARExCAgIjAIiAgMAiICg4CIwCAgIjAIiAgMAiICg4CIwCAgIjAIiAgMAiICg4CIwCAgIjAIiAgMAiICg4CIwCAgIjAIiAgMAiICg4CIwCAgIjAIiAgMAiICg4CIwCAgIjAIiAgMAiICg4Doo5JOp7GwsDB0OQbBGG1sbGBjY+Oom0GfuE6nM3SZfz+EdnySqtUqisUiAOCPf/wjLl26dMQtIhqcpyA4UfgPT5XtJB97KnccnDx5EoFAAADwhz/84YhbQzQc3hGMSTQaxU8//XTUzSDyhHMEROSvO4J0Og1ZlrG8vIxSqYSnT5/CNE0AQCQSwbVr1xCNRvuW++abb/DLL7+gUqkAAFKpFJLJpPidrusoFouo1+tiQkWWZaiq6vrd2toaSqUSIpEIvvvuu55t/dvf/gbTNPH111+L+YB0Oo1AINDzzsCp2zAM2LYNAJAkCTMzM7h+/TpCoZD4ba1Ww/379/tuq1AoIJ/P92xfrVbDkydPYBgGOp0OJElCLBZDJpPp2Y9hDLptr+NoWRbK5TI0TRO/lyQJsizjxo0brn3Uq65CoYDnz5+LsqqqIpFIQFGUkfvutU/AcGM/jnJe+CoIHLlcDpqmiYOg2Wyi0Wig0Wi4Trz9fvzxRxiGgXA4DABi5wG7B/Hq6qo4gKenp9Fut2EYhvgvm80CAP785z+jVCqh0WjAsqyuHV6r1WCaJgKBQFdbes3Y7q07EAhAlmUAgGEYqFQq2Nrawp07d8SB9Pvvv/fd1t5+7f9e1/WuPjabTZRKJUxNTWF+fr7n9gbhZdvDjKOu67h7927PfaRpGprNJr7//vuebWu321haWoJhGKIup1y9XsfKysrYTpphj81hx37Ucl75LggMwwAAJBIJcXBZloV79+7BNE1sbGz0DAKn3P67AKe8s1MzmQzi8bj4ztnhmqahWq3i0qVLiEajkCQJtm3jn//8Z9f2/vWvfwEAZmZmPtifvXWrquq6sum6jocPH8I0TTx69GjkQS0Wi+h0OojH4+IqbVkWfv31V7x7926i2x52HH/77Td89tlnSCaTrv3tjI9pmigUCl1jAUBcmffWtTdYyuXySCHotU9ex36Sx4zDl3MEqVTKNXChUAi3b98GsHs1rNVqPcvF4/GeB0q5XEan08Hs7KwrBIDdSb7Lly8DALa3t8XnsVgMAKBpWtf26vU6AODChQsf7ItTtyRJyGazriuToiiiX6Zp9u3XoPbePjpCoRAymczIjwZetj3MOEajUTx48KBr/KLRqAjcvXd4H6pLURQxhq9evRqoj4MYpk9ex36Sx4zDl0HQ62RWFEUchG/evOlZrt8B+fr1awC7J/DS0lLXf1tbWwDeJz4AXLx4UXym67r4vFarwbZtSJI00FoB5yB0Dspe/XJu+168ePHB7R3k3LlzAHbnEAqFwkjbGse2vY7jfsFg0FNd58+fH2j7wximT17HfpLHjMN3jwYHCQaDsG37wCtDL86z9IfKnj59WvxvRVEQDodhmiY0TRMTTsM8FvTb9mGZn58X7c3n8ygUCojFYpibmxt5wmyc2z5oHKvVKra3t12h3Gq1Rmr7JBzUJ69jP4ljxnGsgmBUe59vB3H58mXk83lomiZuB527h7m5uUNp46iy2SxqtRo2NzdRr9dRqVRQqVR6zp34aduWZYnJXpo8Xz4a9ONcGSaVlH/5y18A7D6L6bqOUqmETqeDcDg89FXw7du3fb9rt9sAgKmpKQAYeXlyNBpFNpvFysoKVFUFgLE9Koxj273G8eeffxZvfDKZDH744Qesr69jfX29a17Hjw46NocZ+3GU88KXQdDrwKpWq+K26+zZs0Ntz3m+da7mgwqFQohEIgB2J3CcSULnBBiEc2C8fPmy5/e6rrvee+/XazKo2WwOVHcoFBKvRL38Icqo2x5mHJ3Prl69ing8PtZ35OM0TJ+8jv2ox4wXvgyCfD7v+is+y7Lw+PHu3ynIsjz01VhVVQQCAdi2jVwuB8uyXN/XajXkcjnXpKDDmbCp1+siCIZ5LHB+a5omcrmc6zvnVRCwuyhlb7+ctRBPnjwRn1mWhVwuh0aj0bOuxcXFrgO1VCoBgPg7CK+8bNvLODr72OEsEvKLYfrkdey9lhuFL+cIZFlGsVhEtVpFMBhEs9kUCytu3rw59PYURUEymRTP+5qmiVnXVqsl0vzKlStdZePxOP7xj3+I30QikaGuVoqiIJVKiboXFhYwPT0N4P1binA4jFu3brnKXb16FWtra2g0GlhcXHTtB1VVe77WBCAm8pwFU86V46uvvhq4zf0Mu+1hxnF2dlYsAnL664yNM2nrB8P0yevYey03Cl8GwfLyMtbW1rC1tQXDMBAIBD64XPRDV7xkMokzZ85gc3NTrCQEdneoqqq4cOFC38UZsVhMLFvu90rnoHYkk0mcOnUKz54961l3r8UuznOxs5TVtm1EIhF8+eWXOHnyJDRN66rr22+/FUtSnTpkWe65fmJYXrY9zDj26m84HEYikcAXX3yB+/fvj9T+cRn22PQy9qOUA7zd/Z3Y2dnZGbrUIUmn0wCA9fX1I24JjeJjHMePsU97+XKOgIgmi0FARP6cI6DD49ziDqrfn0IfR59y3z/Ed3cEo77mIn/4GMfxY+yTw1eThUR0NHx3R0BEk8cgICIGARExCIgIDAIiAoOAiMAgICIwCIgIDAIiAoOAiMAgICIwCIgIDAIiAoOAiMAgICIwCIgIDAIiAoOAiMAgICIwCIgIDAIiAoOAiMAgICIwCIgIDAIiAoOAyLfS6TQWFhYmUheDgMjHOp3OROphEBCRt/9b9K/+9n+eKvvf7y96KvepW1tbQ6lUQiKRwPz8/FE3hz5CvCM4Rt69e3fUTaCPFIOAiLw9GhymWq2GJ0+ewDAMMVESiUQwMzODZDIpfnP//n0EAgH89NNPXdsoFArI5/OIRCL47rvvXN+l02nIsoxvvvkGv/zyCyqVCgAglUqJ7Q/yGwDQdR3FYhH1el20VZZlqKrq+t3+upeXl1EoFPD8+XOYpgkAUFUViUQCiqKI3zuPBI5SqST+LUkSHjx4MMyuddm/nyVJQiwWQyaTObDdpVIJT58+Fe2ORCK4du0aotGoq4xlWSiXy9A0TfxWkiTIsowbN24gFAqNvH9G4aVPwPsxNwwDtm2Lfs3MzOD69es9+zVKuUnxVRA4JzCwu5Omp6fRarXQaDTQaDTEyfX7778D6D+j6uzog2Zcf/zxRxiGgXA47Coz6G9qtRpWV1fFSTQ9PY12uw3DMMR/2Wy2a5vtdhtLS0swDEOcGIZhQNM01Ot1rKysiIPC+b7VasG2bUiShGAwKL7zStf1rrY3m02USiVMTU31nYfI5XLQNE20q9lsirH5+uuvcenSJbH9u3fvotPpIBAIQJZlABD9bDab+P7773vWMcz+GYdB+wS4x3x/vyqVCra2tnDnzp2uAPFabpJ8EwS6rqNQKABA16SYc/UaF8MwAHRf4Qf9jWVZYmAzmQzi8birraurq9A0DdVq1XUgARBXnb193HvilMtl8XkymUQymRR3Bv2u2MMqFovodDqIx+Nie5Zl4ddff+07D+Hsj73ttiwL9+7dg2ma2NjYEH397bff8Nlnn4n27983pmmiUCj03PfD7J9RDdOnvWOuqqrrrkbXdTx8+BCmaeLRo0euE9pruUnzzRyBpmnodDqQZblroKPRaNct/qji8XjfEPjQb8rlMjqdDmZnZ10h4LT18uXLAIDt7e2e202lUq4+KoqCWCwGAHj16tVQ/fBi762pIxQKIZPJHBg0+9sdCoVw+/Ztsc1arQZgdx88ePCga99Fo1HMzMy42jBIPYe5fwbtkzPmkiQhm8267koURRFlTNMUZUYpN2m+uSNwBti5bTpsg1xZ+/3m9evXAIB6vY6lpaWu71utFoD3V5z9eoXL+fPnxVzEYTt37hwMwxB3YB8KREev3ymKAkmSYNs23rx588GrmvNoM2w9h7V/Bu2Tc3w6gdSrjPMY8+LFC7EfvJabNN8EgeNPf/rTUTfhg5y5B9u2D7yynT59elJNGsr8/DxM04Smacjn8ygUCojFYpibm/M0GRcMBnvui2q1iu3tbVcgOiHpd/365HVM/XosOHwXBMfJ3mfs4yabzaJWq2FzcxP1eh2VSgWVSuXAeZNBWZYlJlrpePDNHIGj33P1Xvsn4MibaDSKbDaLlZUVqKoKAOJxYRjOVd656v3888/ibUsmk8EPP/yA9fV1rK+vd82p+NX+Pjnevn3bt0y73QYATE1NdX3ntdyk+CYInB0+7FWk1wRLs9kcS5v6OXfuHABga2vrUOuZlFAoJF51HvTKtVdIVKtVcft89uxZAO8nAq9evYp4PH7k78gPMmifnOPz5cuXPbej67przYPDa7lJ800QzM3NAdgNgo2NDdd3uq4jl8vBsizxmfNuf+9rRcuykMvl0Gg0DrWtqqoiEAjAtu2udgG74ZTL5aDr+ljr7XcwDWtxcbHrBHAWKgUCgb7l8vm8a2wsy8Ljx48B7E7y7p9fqNfrrn87i4T8ZNA+OcenaZrI5XKubTivAYHdxUh794PXcpPmmzkCRVEwOzuLSqWCYrGIarWKYDCIdrstEvPKlSvi6nL16lWsra2h0WhgcXERwWAQzWZTvK/VNO1Q25pMJpHP56FpGjRNE287nMU/TnvH4eLFiyiVSjBNU/S11WqNtLLQmSR0FkI5+/irr77qW0aWZdfYOPs7EAjg5s2b4nezs7NiEdDe9tq2jXA4LOryg0H7pCgKUqmUGPOFhQVMT08DeH8XGw6HcevWLdf2vZabNN8EAQD89a9/hSzLqFQqYilmIBAQS4z3vlpxnjWdpaG2bSMSieDLL7/EyZMnoWla36vbQVe9QX+TTCZx5swZbG5uipWEwO6gqqqKCxcujO1VkKIoyGQyKBQKYiZ7lGftb7/9Vix3ddoty3LPdRF7LS8vY21tDVtbWzAMA4FAoOfS315jEw6HkUgk8MUXX+D+/fue2z5ug/YJ2B3zU6dO4dmzZz3HvN9CJ6/lgMGO1XE4sbOzszORmujYSqfTAID19fUjbsn4fIx9GoVv5giI6OgwCIjIX3MENBzn9nZQ/f5s+7j61Ps/TrwjoIFMatJqkj7GPnnFyUIi4h0BETEIiAgMAiICg4CIwCAgIjAIiAgMAiICg4CIwCAgIjAIiAgMAiICg4CIwCAgIjAIiAgMAiICg4CIwCAgIjAIiAgMAiICg4CIwCAgIjAIiAgMAiICg4CIwCAgIvgsCNLpNBYWFo66GYLf2kN0WHwVBADQ6XSOugkufmsP0WHwXRAQ0eR5+r9F/6/o/3iq7L9r/+mp3GFYW1tDqVRCIpHA/Pz8UTeH6Eh98ncE7969O+omEB25Tz4IiMjjo8EklEolPH36FKZpAgAikQiuXbuGaDTa8/e6rqNYLMIwDNi2DQCQJAkzMzO4fv06QqEQgPePBHvrcf4tSRIePHgwUHtUVUUikYCiKOPpMNER8mUQ5HI5aJoGSZIgyzKazSYajQYMw8CdO3e6wqBWq2F1dRWdTgeBQACyLAMADMNApVLB1taWKOdss9VqwbZtSJKEYDAIYDcIBmmPYRjQNA31eh0rKysiZIiOK18GgaZprkk8y7Jw7949mKaJv//9766rtmVZIgRUVcWNGzfEianrOh4+fAjTNPHo0SNEo1Ekk0kkk0lxZxCLxZDJZIZqj67ruHv3LjqdDsrlMicb6djz5RxBKpVynVyhUAi3b98GANi2jVqtJr4rl8vodDqQJAnZbNZ1dVYURZQzTdNVbpT2KIqCWCwGAHj16pWnbRL5iS+DIJlMdn2mKIq4dX/z5o343DkRnROzVznnUeHFixdja8/58+c9bYvIj3wZBP04z/LOZOBep0+fnnRziD4axyoIiOhwHKsgaLVaAHpf/d++fdu3XLvdBgBMTU0dTsOIjjlfBkGhUOj6rFqtikeCs2fPis+dUHj58mXPbem67nr3T0TdfBkE+XweGxsb4t+WZeHx48cAAFmWXYt45ubmAOy+Fcjlcq7tOK8Pgd0FSb0W//QLEKJPie/WEYTDYQBAsVhEtVpFMBhEs9kUi4Vu3rzp+r2iKEilUsjn89A0DQsLC5iengawu6DI2eatW7dc5S5evIhSqQTTNLG4uIhgMIhWq9V3ZSHRx8xTEBzmXxF+/vnnWF5extraGra2tmAYBgKBwIFLepPJJE6dOoVnz57BMAxXAKiq2nPBj6IoyGQyKBQKsG0btm0jHo8fWr+I/OzEzs7OzlE3goiOli/nCIhoshgERMQgICIGARGBQUBEYBAQERgERAQGARGBQUBEYBAQERgERATg/wEMwvMqJ1x7KAAAAABJRU5ErkJggg==;" parent="1" vertex="1">
          <mxGeometry x="1254" y="125.99999999999999" width="170" height="121.24" as="geometry" />
        </mxCell>
        <mxCell id="3sAKrGf5FiUx43U5iRsO-7" value="" style="shape=image;verticalLabelPosition=bottom;labelBackgroundColor=default;verticalAlign=top;aspect=fixed;imageAspect=0;image=data:image/png,iVBORw0KGgoAAAANSUhEUgAAAlMAAAGkCAMAAAFV52BwAAAAAXNSR0IArs4c6QAAAARnQU1BAACxjwv8YQUAAABpUExURf////n5+WxsbFlZWcXFxY2Njenp6WRkZKurq7+/v6Ojo3l5efj4+Pz8/IuLi2BgYPHx8VxcXNvb29fX13h4eAAAAHAwoIqKigCwUNnZ2URyxMAAAHp6esLCwvX19WhoaDg4OCAgIAAAAGcukPcAAAAjdFJOU/////////////////////////////////////////////8AZimDlgAAAAlwSFlzAAAXEQAAFxEByibzPwAAHBhJREFUeF7t3e1S3Mi2hGEimgiMfxGNPewY/+Hc/00eLa2XrqZ6ka5qtzzCzie8/aFJqavWzmEAC3H3d7i/e+F3Zulw98jvft03fh32v0X+7p9F/u5aN7rWj0Ve69+Fr/UzP7vWF34d8bNrHZe2jvrZtWb4WnN+57Uel1aM+p3rmrGTa11kp6+1Zlc3uladnbnWz7I/++f38dPx+Bw/InuM7DGyx8gez8U/f67++XqR9yK7lz2e87V+/s+f7l753a9f68vZf9N+9VrnfK3Pe61vZ/9N+9VrvU7899H+ZN/59QZ8qXE3v9RNPl5/W9X4B1Sr9Q3Nqr2huXKDN7lUvPWr3/z5Ur3feKmJVv3sUhN8qXG+1LhdXCqSRNPspSKZb3Bvc6lI/vsrlzolr77U8p7t+nF5+8D77FL5kXdaL1V+ZL7Bqk58qd93qfYB+Z5WdcaX+tsvdbu/Z7M/wMxfjP0+x+Vd9+Kz1f+Fi38Bd8GrGudVjdv9quI/X4en/P021v+2Lvjjav2v7II/pt86Kxa121Wt74ws/rNVre/3BK/qp1iTVzWANV27qvW9mPV+x/UD/fsb/cSafvw45iccFs/rJxXCcf3MQojwif8f9Kp+hjV5VQNY07WrenqNWzhujjVdu6rl48HjYfKv4wawJvdqAGvyqk4XfX/Vc6xps1VxzbjqCdf87avimmcXzU/xrbZf1Xpb/eVdPFzzv1rVa3xAuLtVfYBrelVelVf1hvQlTr92VetfdFy+g8U1PSuvyqt6Q/oSp3tV268qPlOU78h8P8c1f3z/zjX/97/vXPPff79zzX/+IX2J088v8P10ge+nC5DGugwzs48c7u4e+O1uPMWq1nf6dvU27HB3yPtu9vmW1asa51WN86rGeVXjvKpxXtXPPXJX7J5WFU8ZeVn/Im6rVfHRYHyUesJHg+Kj3G98WdW+VvXGq2JNu1gVn2UY+uzJm9uuis99XP05nTdeFWvyqlYsyqsawKK8qgEs6g9b1WGT9xlY1JWrWj9TtPr+0U2W1/z0zKJ+PK+PaFqdbszML/lcRf6EhYRlVIf1s2ruFWvyqlYsyqsawKK8qgEsyqsawKK8qgEs6s9aVbzLsMHnZFjUlauK92Se1i8x2duq8kZy94o1eVUrFuVVDWBRXtXpqvyxwKL+slVxzfNPAXtV/NrjmsuquOZHt+W9w6JuuyqueX5Vr2r9IpP1K2b3tKr1ef/5ORmewL3+4Jo/fjyfvgT3eM81P/oS3Hc4/drPFN0dXx8v3+vjmv/d/4NvvCpO96pWnO5VeVX8uuKaXlXNq+L0z7aq5V2Gl/UrZve0qvXvvNYnvu1uVSv3itO9qhWne1VeFb+uuKZXVfOqON2rWnH6H7aqb3cP+/xM0XorOV9Hm7jm3JfgnuP0qa8BXheE4ys3uJuZmdk+PNw95qPun/b5LP79iG9gm58qat/i/Rvv7vzF3j579s4yoXVIZ//w3buEf6fREXhUHtU4j2qYRzXMoxrmUQ3zqIZ5VMM8qmEe1TCPaphHNcyjGlaO4MvZl8HBoypH8MTnq17OpvWdG7k/C/66seF4j7+CbDheKNuyftOZw93T2fee+WytYkANx3sMqOF4YXQEHtVfNSr+5r9ZjjGgZj279AeMihsimjjIgJrlGANqlmMMqImTax5VJ06ueVSdOLnmUXXi5JpH1YmTax5VJ06ueVSdOLnmUXXi5JpH1YmTax5VJ06ulSN4uHuMO3o/ySdhGFATBxlQsxxjQM1yjAE1cXKtGsHbTUOHz/GZBQbUxEEG1CzHGFCzHGNATZxcK0fwdtMQ37E8eFTDI/CoPKpenFzzqDpxcs2j6sTJNY+qEyfXPKpOnFzzqDpxcs2j6sTJNY+qEyfXPKpOnFzzqDpxcs2j6sTJNY+qEyfXyhG8fWbh4fSJBY+qHsHp81XtczDcNNQePbmjHwyoeT6252GeLKtnQM1yjAE16z4L9/VNQ693j+sjF85Hxa87xICaOMiAmuUYA2qWYwyoiZNroyPwqDyqXpxc86g6cXLNo+rEyTWPqhMn1zyqTpxc+49Hxfoajs9gQE0cZEDNcowBNcsxXraJk2sbjYr1NRzvsb6G4zMYUBMHedlmOcaAmuUYL9vEyTWPqhMn137jqFhfsxxjfc169hwG1MRBXrZZjvGyzXKMl23i5Nqvj4r1NXGQ9TXLMdbXLMdYXxMnT+JlmzjIyzbLMV62WY7xsk2cXPOoOnFyrRzB0+E1fvk2dCcM62viIOtrlmOsr1mOsb4mTp7EyzZxkJdtlmO8bLMc42WbOLlWjeDp8e3eKo/qTDkqvh5wwb1DHtXi4xG851F5VL04ueZRdeLkmkfViZNrHlUnTq55VJ04ueZRdeLkmkfViZNrHlUnTq55VJ04ueZRdeLkmkfViZNrHlUnTq6VIzh9OdKXp/WXhUdVjqA9Gfvs81XcO3OJ9TXLsct7dp6fn1lfswRZX7Necg4v2yyvdeubhu6X/5VtWW8aej0blFu1+HgE73lUHlUvTq55VJ04ueZRdeLkmkfViZNrHlUnTq55VJ04ueZRdeLkmkfViZNrHlUnTq55VJ04ueZRdeLkWjkCbhq6e2nfQdSjKkdwumno6FGdKUf1dtPQfRuVmZmZmZmZmZndxtOXt3tfHvIX+8Ayn8fj+rv2fCGrLIWKW9DeDeq7MYlzS6dyUmf3n338SeK/RTWBpUprm77mv4IrT6qcwOFwjO8HcVYpT2p4Ap6UJzXKkxrlSY3ypEZ5UqM8qVGe1ChPapQnNcqTGuVJjfKkRnlSozypUZ7UKE9qlCc1ypMa5UmN8qRGeVKjPKlRntQoT2pUNYG3u4L8d8jnqgnEXUH3d3f3p2dSLTypagLcFfTycjg9GfyzTYqvgmw4foEvg2w4fumDTsUXjb6cbjhbfPz8rl1iPg3HLzCfhuOXqklxV9Dj093XgYfC7RLzaTh+gfk0HL9UToC7gh4O6/1mK09qdAKelCfV4fglT6rD8Ut/06R4WEKzHGM+TQRLnlQngqU/YFI8gKNZjjGfJoLMp1mOMZ8mgiVPqhPBkifViWDJk+pEsORJdSJY8qQ6ESx5Up0IljypTgRLnlQngiVPqhPBkifViWDJk+pEsORJdSJY8qQ6ESx5Up0IljypTgRLnlQngiVPqhPBkifViWDJk+pEsFRNgLuCjmeP4PCkyglwV5An9U41Ae4KOsbtCW88qQ86xaPkl99hv3cFPTOf5nhfflO/6rv63TOfZv0GftVP1aTenhX0blL8ukPMp1mOMZ8mgsynWY4xnyaCpXIC8a/d/f3ybx9/XnhSoxPwpDypTgRLnlQngiVPqhPBkifViWDJk+pEsORJdSJY8qQ6ESx5Up0IljypTgRLnlQngiVPqhPBkifViWDJk+pEsORJdSJY8qQ6ESx5Up0IljypTgRLnlQngiVPqhPBkifViWDJk+pEsORJdSJY8qQ6ESx5Up0IlsoJPBzytoSXT/FcF+bTLMeYTxNB5tMsx5hPE8FSNYGvy4zWx5Q8cnvCwpOqJvB2r8vh7UaOhSdVTSDun1omdXw6n9Tx+Py8/G+HP5hP8/x8eVdQLJ75NOVdQR/5oFPxOKXD4ZW3Vwt3qprAMe7zfIwh+d++ZnQCnpQn1YlgyZPqRLDkSXUiWPKkOhEseVKdCJY8qU4ES55UJ4IlT6oTwZIn1YlgyZPqRLDkSXUiWPqPJ8XyGo7PYD7Ncoz5NBFkPs1yjJdtIljypDoRLHlSnQiWtpkUy2s4foHlNRyfwXya5Rgv20SQ+TTLMV62iWDJk+pEsORJdSJY8qQ6ESz9vkmxuiaCLK+Jg5OYT7Mc42WbCPK6zXKMl20iWPKkOhEs/fqkWF6zHGN5zXKM1TVxMstr4uAkXrZZjvGyTQR53WY5xss2ESx5Up0IljypTgRLnlQngqVyAtwVdHht3xnLk6omcLoraH24UvKkqgmcnoBz/LL+OXhS1QS4Kyh/h+/vbsQ5/8HymuUYy2uO5T05M9/A6yPP1QIuv4PY8/Pxntdtxu8Kupd3BS34l3DhTlUTWO8Kun9cBua3U83HE3jPk/KkOhEseVKdCJY8qU4ES55UJ4IlT6oTwZIn1YlgyZPqRLDkSXUiWPKkOhEseVKdCJY8qU4ES55UJ4IlT6oTwZIn1YlgyZPqRLDkSXUiWPKkOhEseVKdCJY8qU4ES55UJ4IlT6oTwZIn1YlgyZPqRLDkSXUiWCon8HZXUPsrZE+qnIDvCqpUEzjdFeRJnakmsMwnJ9VudfnwO4gVN+VUj+pZkqyuidNZXhMHJyyvNXpX0PMzr9tMPCvoXt4VtD4EB+5UNQHuCrpvd+R5UmoC73lSnlQngiVPqhPBkifViWDJk+pEsORJdSJY8qQ6ESx5Up0IljypTgRLnlQngiVPqhPBkifViWDJk+pEsORJdSJY8qQ6ESx5Up0IljypTgRLnlQngiVPqhPBkifViWDJk+pEsORJdSJY8qQ6ESx5Up0IljypTgRL5QTevoPY6/rzypOqJsBdQU9ffP/UmWoCp7uCPKkz1QROdwWdT+pDLK9ZjrG8ZjnG6po4meU1cXASL9ssx3jZJoK8brMc42WbCNaYxLnTs4LOJmUV7grypMzMzMzMzMzMzMzMzMzM7MzD4XC4P/v94oU/ml3h67f4+WX9GV99q4L9gqd8E3U8vaW6u3s85HcWM7vKfZaJX8KRO2Xf45Y1+7vRBu3psD6qq71t4kBv8HL2JxstwX10aK3U4/oG6qF+/9ydsluXwJ0yd8puzp2yW3On7NbcKbs1d8puzZ2yW3On7NbcKbs1d8puzZ2yW3On7NbcKbs1d8puzZ2yW3On7NbcKbs1d8puzZ2yW3On7NbcKbs1d8puzZ2yW3On7NbcKbu18RLE84HaIxKe4llBl1/e7k7ZcAnePyvoWD8twZ2yxWAJjg/rm6i3ZwW9ew7VOXfqc+GbygkEZwyW4P2zgp4e1ue7PFw26/v3o22Hb0AoEBxFcQSCMwY71T0rKN9OFU8189upTVEcgeAoiiMQnDFagvfPCnqKR3muhzru1KYojkBwFMURCM64cQncqU1RHIHgKIojEJzhTn0mFEcgOIriCARnuFOfCcURCI6iOALBGe7UZ0JxBIJ8M3ohcxRHyNwUd+ozoTgCQYojZI7iCJmb4k7twI+fIkhxBIIUR8gcxREyN8Wd2gGKIxCkOAJBiiNkjuIImZviTu0AxREIUhyBIMURMkdxhMxNcad2gOIIBCmOQJDiCJmjOELmprhTO0BxBIIURyBIcYTMURwhc1PcqR2gOAJBiiMQpDhC5iiOkLkp7tQOUByBIMURCFIcIXMUR8jcFHdqByiOQJDiCAQpjpA5iiNkboo7tQMURyBIcQSCFEfIHMURMjfFndoBiiMQpDgCQYojZI7iCJmb4k7tAMURCFIcgSDFETJHcYTMTXGndoDiCAQpjkCQ4giZozhC5qa4UztAcQSCFEcgSHGEzFEcIXNT3KkdoDgCQYojEKQ4QuYojpC5Ke7UDlAcgSDFEQhSHCFzFEfI3BR3agcojkCQ4ggEKY6QOYojZG6KO7UDFEcgSHEEghRHyBzFETI3xZ3aAYojEKQ4AkGKI2SO4giZm+JO7QDFEQhSHIEgxREyR3GEzE1xp3aA4ggEKY5AkOIImaM4QuamDJfg6eHwenpW0P1h+cPh8MQfG3fqGhRHIEhxBIIUR8gcxREyN2W0BF8f4uf2rKCLJyUkd+oaFEcgSHEEghRHyBzFETI3ZbAEx4f1gS5vzwq6d6duieIIBCmOQJDiCJmjOELmpgyW4P2zgtLXs8fmvVmfFXQfD4zxT+M/URzh+HyMHxRHiNRyTYoj5EtTHKFf68BPg53qnhWUiieb+e3UNSiOQJDiCAQpjpA5iiNkbspoCc6eFfR6f/cSb6Fe/D76jVAcgSDFEQhSHCFzFEfI3JQbl8CdugbFEQhSHIEgxREyR3GEzE1xp3aA4ggEKY5AkOIImaM4QuamuFM7QHEEghRHIEhxhMxRHCFzU9ypHaA4AkGKIxCkOELmKI6QuSnu1A5QHIEgxREIUhwhcxRHyNwUd2oHKI5AkOIIBCmOkDmKI2Ruiju1AxRHIEhxBIIUR8gcxREyN8Wd2gGKIxCkOAJBiiNkjuIImZviTu0AxREIUhyBIMURMkdxhMxNcad2gOIIBCmOQJDiCJmjOELmprhTO0BxBIIURyBIcYTMURwhc1PcqR2gOAJBiiMQpDhC5iiOkLkp7tQOUByBIMURCFIcIXMUR8jcFHdqByiOQJDiCAQpjpA5iiNkboo7tQMURyBIcQSCFEfIHMURMjfFndoBiiMQpDgCQYojZI7iCJmb4k7tAMURCFIcgSDFETJHcYTMTXGndoDiCAQpjkCQ4giZozhC5qa4UztAcQSCFEcgSHGEzFEcIXNT3KkdoDgCQYojEKQ4QuYojpC5Ke7UDlAcgSDFEQhSHCFzFEfI3BR3agcojkCQ4ggEKY6QOYojZG6KO7UDFEcgSHEEghRHyBzFETI3xZ3aAYojEKQ4AkGKI2SO4giZm+JO7QDFEQhSHIEgxREyR3GEzE1xp3aA4ggEKY5AkOIImaM4QuamjJbg+PAlvsC9PXXj8fDthd+ecaeuQXEEghRHIEhxhMxRHCFzUwZL8BSVOn8Gx9dvdy/u1I1QHIEgxREIUhwhcxRHyNyUwRJ0zwp6ij7VncoHxjzbBIojPMczeJ4HnhW0Xu9+4FlBy/9Jyw+KI2Ru/Mdi9O1UlolnmuVbLb+duhWKIxCkOAJBiiNkjuIImZsyWoJ81tS7J065U7dCcQSCFEcgSHGEzFEcIXNThktwPCzival4/tTKnboViiMQpDgCQYojZI7iCJmbcuMSuFPXoDgCQYojEKQ4QuYojpC5Ke7UDlAcgSDFEQhSHCFzFEfI3BR3agcojkCQ4ggEKY6QOYojZG6KO7UDFEcgSHEEghRHyBzFETI3xZ3aAYojEKQ4AkGKI2SO4giZm+JO7QDFEQhSHIEgxREyR3GEzE1xp3aA4ggEKY5AkOIImaM4QuamuFM7QHEEghRHIEhxhMxRHCFzU9ypHaA4AkGKIxCkOELmKI6QuSnu1A5QHIEgxREIUhwhcxRHyNwUd2oHKI5AkOIIBCmOkDmKI2Ruiju1AxRHIEhxBIIUR8gcxREyN+Wv7hRjEwhujOIIBCmOQJDiCJljm0LmprhTEsGNURyBIMURCFIcIXNsU8jcFHdKIrgxiiMQpDgCQYojZI5tCpmb8pk6xdgEgqMYm0BwYxRHIMg2BYIUR8gc2xQyN8WdkghujOIIBNmmQJDiCJljm0LmprhTEsGNURyBINsUCFIcIXNsU8jclD+xU0xNyJw75U4xNiFzTE3InDvlTjE2IXNMTcicO/XHdoqxCQQZm5A5piZkzp1ypxibkDmmJmTOnXKnGJuQOaYmZM6dcqcYm5A5piZkzp36bzv1/llBX+N5CQ+Hp/zTGXfqGmxTIMg2BYLsU8gc2xQyN2WwBBfPClq8+wPcqWuwTYEg2xQIsk8hc2xTyNyUwRJ0zwq6+3Y4HNaWdeJZQevjaiYwNmGNHZ8Zm7DE7o/DD8q5Z2wCwS1/DE5gHSvbFCK1YJ9CvjjbFE7rHPmRRt9OvXtWEB4uH8Lht1PXYJsCQbYpEGSfQubYppC5KaMlKJ4V5E7dCtsUCLJNgSD7FDLHNoXMTRkuQXtW0PK2Kv7w+q5fcKeuwTYFgmxTIMg+hcyxTSFzU64pgeBOXYNtCgTZpkCQfQqZY5tC5qa4UxLBjbFNgSDbFAiyTyFzbFPI3BR3SiK4MbYpEGSbAkH2KWSObQqZm+JOSQQ3xjYFgmxTIMg+hcyxTSFzU9wpieDG2KZAkG0KBNmnkDm2KWRuijslEdwY2xQIsk2BIPsUMsc2hcxNcackghtjmwJBtikQZJ9C5timkLkp7pREcGNsUyDINgWC7FPIHNsUMjfFnZIIboxtCgTZpkCQfQqZY5tC5qa4UxLBjbFNgSDbFAiyTyFzbFPI3BR3SiK4MbYpEGSbAkH2KWSObQqZm+JOSQQ3xjYFgmxTIMg+hcyxTSFzU9wpieDG2KZAkG0KBNmnkDm2KWRuijslEdwY2xQIsk2BIPsUMsc2hcxNcackghtjmwJBtikQZJ9C5timkLkp7pREcGNsUyDINgWC7FPIHNsUMjfFnZIIboxtCgTZpkCQfQqZY5tC5qa4UxLBjbFNgSDbFAiyTyFzbFPI3BR3SiK4MbYpEGSbAkH2KWSObQqZm+JOSQQ3xjYFgmxTIMg+hcyxTSFzU9wpieDG2KZAkG0KBNmnkDm2KWRuijslEdwY2xQIsk2BIPsUMsc2hcxNcackghtjmwJBtikQZJ9C5timkLkp7pREcGNsUyDINgWC7FPIHNsUMjfFnZIIboxtCgTZpkCQfQqZY5tC5qaMlqB7VtBLfGHy5Ze2u1NXYZsCQbYpEGSfQubYppC5KYMlqJ8V5OdP3QbbFAiyTYEg+xQyxzaFzE0ZLEH/rKDFU/WwoHhWUPf8GP3jefRZQUuSsQkRHH9Qzg6eFZQLZpvCEoos2xTW633WZwV9LZ5o5rdT12GbAkG2KRBkn0Lm2KaQuSmjJeieFfT4yntWHXfqGmxTIMg2BYLsU8gc2xQyN2W4BO+eFfQSfzi8fr14h8qdugbbFAiyTYEg+xQyxzaFzE25pgSCO3UNtikQZJsCQfYpZI5tCpmb4k5JBDfGNgWCbFMgyD6FzLFNIXNT3CmJ4MbYpkCQbQoE2aeQObYpZG6KOyUR3BjbFAiyTYEg+xQyxzaFzE1xpySCG2ObAkG2KRBkn0Lm2KaQuSnulERwY2xTIMg2BYLsU8gc2xQyN8WdkghujG0KBNmmQJB9Cpljm0LmprhTEsGNsU2BINsUCLJPIXNsU8jcFHdKIrgxtikQZJsCQfYpZI5tCpmb4k5JBDfGNgWCbFMgyD6FzLFNIXNT3CmJ4MbYpkCQbQoE2aeQObYpZG6KOyUR3BjbFAiyTYEg+xQyxzaFzE1xpySCG2ObAkG2KRBkn0Lm2KaQuSnulERwY2xTIMg2BYLsU8gc2xQyN8WdkghujG0KBNmmQJB9Cpljm0LmprhTEsGNsU2BINsUCLJPIXNsU8jcFHdKIrgxtikQZJsCQfYpZI5tCpmb4k5JBDfGNgWCbFMgyD6FzLFNIXNT3CmJ4MbYpkCQbQoE2aeQObYpZG6KOyUR3BjbFAiyTYEg+xQyxzaFzE1xpySCG2ObAkG2KRBkn0Lm2KaQuSnulERwY2xTIMg2BYLsU8gc2xQyN8WdkghujG0KBNmmQJB9Cpljm0LmprhTEsGNsU2BINsUCLJPIXNsU8jcFHdKIrgxtikQZJsCQfYpZI5tCpmbMlqC988KWn53OHscR+NOXYNtCgTZpkCQfQqZY5tC5qYMluDyWUFnj+M4405dg20KBNmmQJB9Cpljm0LmpgyW4PJZQeePDWrcqWuwTYEg2xQIsk8hc2xTyNyU0bdT2aCzN07126nX72b/Rxt+ontW0EedMhv37llB6x8Oh4f8R2ZmZmZmZmZmZmZmf5e7u/8Hv9xQeaujHl0AAAAASUVORK5CYII=;" parent="1" vertex="1">
          <mxGeometry x="87.99525790127825" y="78.3436871892755" width="300" height="211.76" as="geometry" />
        </mxCell>
        <mxCell id="3sAKrGf5FiUx43U5iRsO-8" value="" style="shape=image;verticalLabelPosition=bottom;labelBackgroundColor=default;verticalAlign=top;aspect=fixed;imageAspect=0;image=data:image/png,iVBORw0KGgoAAAANSUhEUgAAAlMAAAGjCAMAAAFI4lDIAAAAAXNSR0IArs4c6QAAAARnQU1BAACxjwv8YQUAAABpUExURf////n5+WxsbFlZWcXFxenp6WRkZKurq9fX12BgYPHx8b+/v1xcXNvb26Ojo3l5efj4+Pz8/IuLi4qKinh4eAAAAI2NjXAwoACwUNnZ2URyxMAAAHp6esLCwvX19WhoaDg4OCAgIAAAAEHv/10AAAAjdFJOU/////////////////////////////////////////////8AZimDlgAAAAlwSFlzAAAXEQAAFxEByibzPwAAIBpJREFUeF7tnd1S40qwrB1hBxAmzA1MnB173bDf/yVPVWdabeRWqQrsQTD5DYufXjmt6lRia0TR3m2Zhz0/+TKP7f2f9v42/IK5/sdpn/0/p3125vH4fLO5TrvX7Fz/OW2u/3Wu52r87rkOu73l/s/pdDgZ8bvRXPg/nKzx671/v9lcD27cr/fLuM1cb+0x+jZz2UlMP+aszQV++Vz7Z39cfcowmgsPIZyrMa5rftzRXPxfF1zO5Vp89r1ztcdVfu58fq7r64k2l2tvtcavz+Xarcz1eLR3N5qrZXaDa2xsb66DBd/m6g8ET649ufbkWvwPMJpr8XHCtb/T+/448dW5Hk79Oe2rczV+91xvu9PNvN/v3Hvx99nvHu0s3ogbzMQ83YLvn6p9QzR64O8w1XPa98Vv03pVP3Uq86r/mzx651OdfKr+9Iv/8694tc9/P69XZf/8ybE+VZp/fSp7SpXtZ9anMq94ab2CT3XwqZ58qoNP5Q8YiUeGflSyXtVHmrTxjVO9t7cLPj+VX0Z+YCQlq1PNuM1Ui1LyV6eaHpC/PFW/ZvjyVJ3fOpV51b/z2zVB/87H/yD+/9s/2dcfGVy6mQVOfHWqiyuGr051gab6a1NVrhnEr+fQ3qf/HfANXH8H/FUWDv8vVeUPJg1+7fjDSoNfN35AVXt7ADw9+Gd//B/7N4c18aZCo91ZaFDT+Ate+TNB48Ir1sQnhgbVDVX1qaoe2s1tPIpup6r2Ly8+2W+nqktUFaG68QOqevBH0faZvCJUN1TVL6oKV8i7F3/354nP3jeANfF+QyO+Zli8/agzSKhu/ICqvA0Hz89bqqoVtLmqOgvDnPTyXwPTtPzyGtakqu5e1eV9htWqOOn/bssrTvqNVXHS/1TVkC1V5fcZEPc/J7toOL9x0v9O7YcIztP0pH+anvT5hH8N/3b+muF00Bn8RVUt3mfgpN9Tld9naIUZ26nqElVFqG78gKr8PgMfRdvXhJPKK36coaoI1Y3NV+VXyKfzfYbv5f+8BiHEFvAnwEKv7t/haAXNWvs2wLmq7VUmxA+E1zF2IdThdczyhdDdYVG/o6pX/CDgXrCoalUn+8dXq4s3km4Mi/qf09rtr1bMmcf98x284lX7Zy/77wSLUlUJWJSqSsCifldVz/e5PGZRn6vq5Bft5+t2eyT78MuHX3iHjQGM/kOE04FF/e+p/U6C8+HvtBoIro1v3gTOopT2BCxKVSVgUaoqAYv6dFUPz23PhxvDoj7v1YnNhjeFRX2+Kv+R182vRlmU0p6ARamqBCxKVSVgUb+rKrvqu/kln8GiPldVu0K2qlrzwA1bawdtNqX7DPYcaFXpsV1VzWBRqioBi/plVflmWpu8QiYnblRwC1jUZbNi2/bAuXgUPbS7DHhjFeQeTzjfkyvOujwti7pfVZzVpu1wVlU1g7OqqgSc9W9WZY+fb3bhF11fcda/WJV3Dqw9snPW2ilgUV+oyoj6GTjrX6wqA2dVVYtw1s9Oy7+tqlTVRzjrt1U1vurjrN9W1XRpevHbOCs/Ssv/Ps4n7zPYvyYObS+SGZz127waw1lVVQLOqqoScFZVNXHcPe9eh9einPVbqvK7tbsHXpB+uM/AWf879BsFg4YEiq/h3/7v6XP3GdovCQ2edTjrt3i1DGdVVQk4q6pKwFlV1SX7868PfoSzfptXs9ukhLN+W1XmFfe6uYSzfltVYzirqkrAWVVVAs6qqhJw1m+q6m33MHi0+t6q2hWyPYy2fgb+Lu130Qoip3cv6Q6/OSGEEEKIz/GGn+62f6YO/q0qJk52wecO2X/+U5PHdpnl8JLnH2UYmv3u2a9GH3aHR7v2e52u/Ra2wflHKK1eVqWRVWlkVZrfaBVvIHQ4fs2vtYr3VTocn0ODOhy/RlbN4fg1y6t/eG/XU8d9f+lHWTXELj791cw//MRZVg0xq+w61K3yD2CrVvHOb8fGaFDHxng3uGNjNKjjEw4prV5WpZFVaWRVGlmVRlalkVVpZNUVj9NdUL4jsmrOkTeMjXaxPl2xy6orTntzyjcse7MP/o7IqjSyKo2sSiOr0siqNLIqjawaYpeh/mPlD7+LI6uG2JWV3zDGZ+TPLXdquSE0qHPqv9U1YToa1LExGtRpM87x34JdtOr0aB49P9uV+oVV/Lg1aFDHxmhQx8ZoUMfGaFDHJxxSWr2sSiOr0siqNLIqjaxKI6uuOPcpHP221f598w2ONKhjYzSoY2M0qGNjNKjjEw4Zrf5ol55+MXU8fbiqklXXHHFv/bQ3/OvpNqisSiOr0siqNLIqjaxKI6vSyKo0smoIe0F3Lxeds7JqCDuM7YOsAsur3+9Pu2ffCkJWgdLqa1axxAkOX8ESJzhcgAZ1bIwH7dgYDerYGA/a8QmHyKo5PuEQWTXHJxwiq+b4hENk1RyfcIismuMTDhmunvss7HaHtk3TxNetYokTPsYSJ3ysBg3q2BgP2rExHrRjYzxoxyccMlr9eZ8FuwBt1+toXTBKPQvTS3yf8b/MEidcyBInfKwGDeqc+obcE6bjQTunw7S97MTlNrOXb+OehbbPgm+v9WpXoZ/eZ4ElTvgYS5zwMZY44WM1aFDHxnjQjo3xoB0b40E7PuGQ0uplVZplMUuc8DGWOOFjLHHCx1jihI/V4EE7NsaDdmyMB+3YGA/a8QmHyKo5PuEQWTXHJxwiq+b4hENk1RyfcMjy6ve+KbV96C0LsmoM74K2ptAzsmrI+d46erKBrEojq9LIqjSyKo2sSiOr0siqNLLqCu6zYFdW51dhBbJqzrTPwiOvQdt7Q1ZdMe2zsH9N7rPAEid8jCVO+BhLnPAxljjhYzV40I6N8aAdG+NBOzbGg3Z8wiHLqx8gq9LIqjSyKo2sSiOr0siqIdxnwegXobJqiBmEG8b9JmjQs8ASJ/z1wFnixNNTfz3wM94OwBInLhsF1t9GR//PxnjQjo3xoB2bgQftzA9wflvZZ+HwfOh31pWqArIqjaxKI6vSyKo0siqNrLqG+yy82oVVbp8FljjhYyxxwsdY4oSPscQJH6vBg3ZsjAft2BgP2rExHrTjEw4ZrX66C3ro2842ZNUc7rNgl6H+i1sX+ywIIYQQQgghhBBCLPOwb7cSjvt9276xjYkB/vNk++C3YD5u3i9m+I+TLVTth8lyKsKc8pueDyf/RaSLm59vf/5p6MIl/EUt+w5sv6+V6JT9Fxit/oBXgji+2gezqQXLkVNZ5FQWOZVFTmWRU1nkVBY5lUVOZfmVTrEpocPxK36tU2zf6HB8Dv3pcPwKOTWH41fIqTkcv0JOzeH4FXJqDsevWF497wrv99MvPcipIdwq9fImupwacW75vOxflFMjznvK2n+TWX/8lWB/CvSnY2Nsh+3YGP3ptL89YDFT7I01m6ZvwM1mio3DHRujPx0boz8dG6M/HZ9wxOLq2+a7e/vTN4iTU1nkVBY5lUVOZZFTWeRUFjmVRU5lkVNZ5FQWOZVFTmWRU1nk1Jyjd5qxxfOyz1NOzfHuxYOcmjFavQXKb3me/NVJ2zvS7nn6zkxbe0d/Ok9fvOc5Os5CprgLQGvx3H6fJ/3p2Bj96dgY/enYGP3p+IQjRqt/nfqF5VRnuHr/jjsc2l677R2RU1nkVBY5lUVOZZFTWeRUFjmVRU5lkVNZ5FQWOZVFTmWRU2Owt2duW89vhv50bIz+dGyM/nRsjP50fMIRi6v/SR2x9KdjY/SnY2P0p2Nj9KfjE45YWv3Rt4m1j3LqzNLqzx2xu91Le80Cx+8O+4sDbA760xm8VsLw1QpsjP502owz/P7wYqbYEWv03mF+3Bz0p2Nj9KdjY/SnY2P0p+MTjlhc/Ts6Yp9TLwP8zdCfjo3Rn46N0Z+OjdGfjk84orJ6OZVFTmWRU1nkVBY5lUVOZZFTWeRUFjmVRU5lkVNZ5FQWOXXFwx73pF7fdof33kAlp+a8mEftVsvzqzpiJ0ar9z5PD5Xv5imnzoxWb99u7tTpiHbP/t230ZvDX3gt2+tX0l3YL+Gw1Dvs2+juDW8hnm56KlNz2uv9Pvv336unSo/ojcrq5VQWOZVFTmWRU1nkVBY5lUVOZZFTWeRUFjmVRU5lkVNZ5NSQB9xN8PueZ+TUkHP34pucAkur95ue7lS7Q0V+zj3PbEfs6J7noe2PcP225NR53+HHS6f4cXPQn46N0Z+OjdGfjo3Rn45POGJx9W/njRLkFFhcfdsoAd9/Z+RUlvs4xQI7HC9Afzo2Rn86NkZ/OjbGg3Z8whH3c4oFdjg+hwV2OF6A/nRsjAft2Bj96dgYD9rxCUfIqTk+4Qg5NccnHCGn5viEI+TUHJ9whJya4xOOkFNzfMIRcmqOTzhCTs3xCUfIqTk+4Qg5NccnHDFc/R4dsb5Vwuc7Yllgh+NzWGCH4wXoT8fGeNCOjdGfjo3xoB2fcMRo9Y9TH97+C32eLLBjYyywY2MssNP+dgn607ExHrRjYzxox8Z40I5POGK0+nNHrDfnyakzo9Xbtxucaven8M4p7Zcw2M72CxsWxNCfztMX7g7P7wrjbXE3Xe+INdpdvE92xLLAjo2xwI6NscBO+9sl6E/HxnjQjo3xoB0b40E7PuGI0epbR+zh2QzzjvSLTPFjDhbYsTEW2LExFthpf7sE/enYGA/asTEetGNjPGjHJxxRWb2cyiKnssipLMtaFtixMRbYsTEW2LExFtjxCWvwoB0b40E7NsaDdmyMB+34hCPk1ByfcIScmuMTjpBTc3zCEXJqjk84Qk7N8QlHyKk5PuEIOTXHJxwhp+b4hCPk1ByfcMTy6rGb7lvq9WZYYMfGWGDHxlhgx8ZYYMcnrMGDdmyMB+3YGA/asTEetOMTjlhcPXfT3e0O011POTXi3Od5cXtKTg3pu+k++E4ADe8dHr+xwI6NssDOqfBiZ3nGd4dvvl9CajddNMYaytSQtpuuvdu99kzx4zUssGNjLLBjYyywY2MssOMT1uBBOzbGg3ZsjAft2BgP2vEJRyyv/ho5lUVOZZFTWeRUFjmVRU5lkVNZ5FQWOZVFTmWRU1nkVBY5NefonWbeGHt68009J+TUnN69mO0dZoEdG2OBHRtjgR0bY4Edn7AGD9qxMR60Y2M8aMfGeNCOTzhitHoLFDpiLVwnf7V7srxfAgvsmJIFdp6eBvc8D9f3PDlnAR6085WO2Fkr7PS2kCk4xdvD7b2hTM15ZdOw7g5fMly9f8cdDq/7vT1O6ed9ZHn118ipLHIqi5zKIqeyyKksciqLnMoip7LIqSxyKoucyiKnxqAj9vV9etl2OTVm6oh9nO4Py6kRvSNWToGl1feO2Iv7U6el28MssGNjLLCTvTv84Z7s2tvC4f/SfgnO1BHbjVKmxrAj9sIoOZVGTmWRU1nkVBY5lUVOZZFTWeRUFjmVRU5lkVNZ5FQWOZVFTl3B3XR377vkbrossGNjLLBjYyywY2MssOMT1uBBOzbGg3ZsjAft2BgP2vEJR4xWz910j4/mkTpiz4xWf9nnKafOjFbvBl10xE7ffe9//mnowiVTPzo8mnbTFXO4m25z6nI3XSGEEEIIIYQQQgghhBBCCCGEEP8ux/3jbve8P++5P3126tucCVHiwSLlUUKCnqf+BGVKfJIDHpdObGV8ffXt4Py3uA/28WJLRiGyHM+ZwlPea9uP8fyoZY9i7etL2Lsm/kkYghVe29YSeO9p8i5G7yduHEeZ4ifinyN97k/n57hnf/47+lf+mNWe+5i0S5Spf5d7nXtl6t9FmRK3RpkSt0aZErdGmRK3RpkSt0aZ+sfh76YHUJhHmfphcB+DAAqTMDgBFOZRpn4YDE4AhUkYnAAK8yhTPwwGJ4DCJAxOAIV5lKkfBoMTQGESBieAwjzK1A+DwQmgMAmDE0BhHmXqh8HgBFCYhMEJoDBP+dyfvOPzwN683e75nU3EM5SpO8HgBFCYhMEJoDBP9dwf503EC9vBKVN3gsEJoDAJgxNAYZ7quWcTMT8cexPxjD/+0j3i9jA4AdBx780A6BicAOgKlB+n4ibiCT1OFeE+rQHQMTgB0DE4AdAxOAHQFShnatRE/HL9DKhMFWFwAqBjcAKgY3ACoGNwAqArUD/3rVu4NRH75bk3EY8u05WpIgxOAHQMTgB0DE4AdAxOAHQF7nXulakiDE4AdAxOAHQMTgB0DE4AdAWUqY3A4ARAx+AEQMfgBEDH4ARAV0CZ2ggMTgB0DE4AdAxOAHQMTgB0BZSpjcDgBEDH4ARAx+AEQMfgBEBXQJnaCAxOAHQMTgB0DE4AdAxOAHQFlKmNwOAEQMfgBEDH4ARAx+AEQFdAmdoIDE4AdAxOAHQMTgB0DE4AdAWUqY3A4ARAx+AEQMfgBEDH4ARAV0CZ2ggMTgB0DE4AdAxOAHQMTgB0BZSpjcDgBEDH4ARAx+AEQMfgBEBXQJnaCAxOAHQMTgB0DE4AdAxOAHQFlKmNwOAEQMfgBEDH4ARAx+AEQFcgfe6PD/t3Nri0nyO/7/fejdA/+4gyVYTBCYCOwQmAjsEJgI7BCYCuQPbcvzz4+3OLS98ZdmmPWGWqCIMTAB2DEwAdgxMAHYMTAF2B5Lk/PXxoxTtMSeqffUSZKsLgBEDH4ARAx+AEQMfgBEBXIHnuP7YMg5fpFx36ZxPn3uEDPhj6LPjs6cTgBDydnuyNwQkwlcHgBKAEBieApS7W3rj8LJmpo2+5P28SPj8TXn52Ro9TRRicAOgYnADoGJwA6BicAOgKZM/9Aa/jYJHy9s5Xf1x69W2H+Zmu0b8KgxMAHYMTAB2DEwAdgxMAXYF7nXtlqgiDEwAdgxMAHYMTAB2DEwBdAWVqIzA4AdAxOAHQMTgB0DE4AdAVUKY2AoMTAB2DEwAdgxMAHYMTAF0BZWojMDgB0DE4AdAxOAHQMTgB0BVQpjYCgxMAHYMTAB2DEwAdgxMAXQFlaiMwOAHQMTgB0DE4AdAxOAHQFVCmNgKDEwAdgxMAHYMTAB2DEwBdAWVqIzA4AdAxOAHQMTgB0DE4AdAVUKY2AoMTAB2DEwAdgxMAHYMTAF0BZWojMDgB0DE4AdAxOAHQMTgB0BVQpjYCgxMAHYMTAB2DEwAdgxMAXQFlaiMwOAHQMTgB0DE4AdAxOAHQFVCmNgKDEwAdgxMAHYMTAB2DEwBdgfK5P3mDwrRH7OG6IwEoU0UYnADoGJwA6BicAOgYnADoClTP/WyP2KXWYWWqCoMTAB2DEwAdgxMAHYMTAF2B6rmfNXy2TfNGuVKmijA4AdAxOAHQMTgB0DE4AdAVKD9OIUznxnTw0HaK/YD3Dh+8J1Z/cn8YnIDWEpzYd9h09sbgBEDH4ARAl3izd+2klzP1cY9YMMwUPxE5GJwA6BicAOgYnADoGJwA6ArUz/3p/GznTcT+xft1opSpMgxOAHQMTgB0DE4AdAxOAHQF7nXulakiDE4AdAxOAHQMTgB0DE4AdAWUqY3A4ARAx+AEQMfgBEDH4ARAV0CZ2ggMTgB0DE4AdAxOAHQMTgB0BZSpjcDgBEDH4ARAx+AEQMfgBEBXQJnaCAxOAHQMTgB0DE4AdAxOAHQFlKmNwOAEQMfgBEDH4ARAx+AEQFdAmdoIDE4AdAxOAHQMTgB0DE4AdAWUqY3A4ARAx+AEQMfgBEDH4ARAV0CZ2ggMTgB0DE4AdAxOAHQMTgB0BZSpjcDgBEDH4ARAx+AEQMfgBEBXQJnaCAxOAHQMTgB0DE4AdAxOAHQFlKmNwOAEQMfgBEDH4ARAx+AEQFdAmdoIDE4AdAxOAHQMTgB0DE4AdAWy5/7k/Z1Ty7DxvH/zfoTTQvOwMlWEwQmAjsEJgI7BCYCOwQmArkDy3M9ahne7lze8Zrv2Hb4RDE4AdAxOAHQMTgB0DE4AdAWS537WMnz0PLVMLTUPtz1in05PIgmDE+B7vz6l9oh1GJyAQ2vKZHACoMu8kezj1IeWYTxqtUyB60ZPPU4VYXACoGNwAqBjcAKgY3ACoCuQPfeDlmFl6pYwOAHQMTgB0DE4AdAxOAHQFUif+w8tww1eTxlXO1krU2UYnADoGJwA6BicAOgYnADoCtzr3CtTRRicAOgYnADoGJwA6BicAOgKKFMbgcEJgI7BCYCOwQmAjsEJgK6AMrURGJwA6BicAOgYnADoGJwA6AooUxuBwQmAjsEJgI7BCYCOwQmAroAytREYnADoGJwA6BicAOgYnADoCihTG4HBCYCOwQmAjsEJgI7BCYCugDK1ERicAOgYnADoGJwA6BicAOgKKFMbgcEJgI7BCYCOwQmAjsEJgK6AMrURGJwA6BicAOgYnADoGJwA6AooUxuBwQmAjsEJgI7BCYCOwQmAroAytREYnADoGJwA6BicAOgYnADoCihTG4HBCYCOwQmAjsEJgI7BCYCuQP3cHx/e95evqX18HW1ApUwVYXACoGNwAqBjcAKgY3ACoCtQPffHFza9nFuGjw+Hi6aXCWWqCIMTAB2DEwAdgxMAHYMTAF2B6rk/PXxo+LSvT5eNVBPKVBEGJwA6BicAOgYnADoGJwC6AtVzzzCd94g9PNjj1ThT6CY9b4GqPyt/GJyAtgVrpne4TcjgBKDZl8EJaLI0Nmv5uc+33J9+2QHd6MbF9RXQ41QRBicAOgYnADoGJwA6BicAugLlc3/wULVIPZ+TpOe+G8DgBEDH4ARAx+AEQMfgBEBX4F7n/idlit4tQ91dYXACoGNwAqBjcAKg4xIDoCugTClTK0BX4Cdmit4tQ10WercMdXeFwQmAjksMgI7BCYCOSwyAroAypUytAF0BZUqZWgG6AsqUMrUCdAWUKWVqBegKKFPK1ArQFVCmlKkVoCugTClTK0BXQJlSplaAroAypUytAF0BZUqZWgG6Atlzf/J2hGmP2BdveHnw7WG/Y49YercMdVno3TLU3RUGJwA6LjEAOgYnADouMQC6Aslzf7VHrNG+OFyOXLCFTNG7Zaijd8tQd1cYnADouMQA6LjEAOi4xADoCiTP/dUesfs9mvPaPnmDXClTRRicAOi4xADouMQA6LjEAOgKZB+nPrYMg76L52g/T2w7jMbY2/6hd8tQR++WoY7eLUPdXf8wOAEwk0sMwHxcYsBdeod90mymBnvEHqck9c8m9DhVhMEJgI5LDICOSwyAjksMgK5A+ty31nN/jnu2x6q+M2wb/st7xNK7Zaijd8tQR++Woe6uMDgB0HGJAdBxiQHQcYkB0BW417lXpoowOAHQcYkB0HGJAdBxiQHQFVCmlKkVoCugTClTK0BXYEuZonfLUEfvlqGO3i1DHb1bhrq7wiUGQMclBkDHJQZAxyUGQFdAmVKmVoCugDKlTK0AXQFlSplaAboCypQytQJ0BZQpZWoF6AooU8rUCtAVUKaUqRWgK6BMKVMrQFdAmVKmVoCuQPncLzURz1CminCJAdBxiQHQcYkB0HGJAdAVqJ77xSbiGcpUES4xADouMQA6LjEAOi4xALoC1XO/2EQ8o/V5FqF3y7jIZqV3y7jucFpvdTSNv9G7Zai7z5sXa3CJAbb2zOLb6p/Wm1y5ei4xYKo08+aUH6eGTcQv/KSjx6kiXGIAdFxiAHRcYgB0XGIAdAWK5/7I9uEPTcTK1A3gEgOg4xIDoOMSA6DjEgOgK1A/961v+KKJ+H3UOqxMVeESA6DjEgOg4xIDoOMSA6Ar8Jlzn0GZKsIlBkDHJQZAxyUGQMclBkBXQJlSplaAroAypUytAF0BZUqZWgG6AsqUMrUCdAWUKWVqBegKKFPK1ArQFVCmlKkVoCugTClTK0BXQJlSplaAroAypUytAF0BZUqZWgG6Aulzf3x47y97fHy1L9o+Zoe9ffbur7T9EWWqCJcYAB2XGAAdlxgAHZcYAF2B7Ll/YYvLRXhevGX4lnvE0rtlqKN3y1BH75ahjt4tQ91d4RIDoOMSA6DjEgOg4xIDoCuQPPenh/YQNfWhOy97e3dSpm4DlxgAHZcYAB2XGAAdlxgAXYHkuWev8GV751v/zYaXy6gB7x32VlJsWJr7Q++WeWqtqZk9Ym22RO9wmy7RPntZ5L3+cIkBbVVb3yPWT3oyU0c0nfffZnh+v2we/vCc2NDjVBEuMQA6LjEAOi4xADouMQC6Atlzf/BQtUh5mtpXjTeP1puu0b8MlxgAHZcYAB2XGAAdlxgAXYHPnPsMylQRLjEAOi4xADouMQA6LjEAugLKlDK1AnQFlCllagXoCihTytQK0BVQppSpFaAroEwpUytAV0CZUqZWgK6AMqVMrQBdAWVKmVoBugLKlDK1AnQFlCllagXoCihTytQK0BVQppSpFaArUD73sz1iX33k6tWQlakyXGIAdFxiAHRcYgB0XGIAdAWq5368R+xVq4syVYVLDICOSwyAjksMgI5LDICuQPXcz/aIdU6I2UeUqSJcYgB0XGIAdFxiAHRcYgB0BcqPU1dNxC/DjnT2DqOPNfmH3i1DHb1bBrrb9Q5Tdx+4KC4x4Ef0DvukxUxd7RH7/H7Vit7Q41QRLjEAOi4xADouMQA6LjEAugL1c/9hj1jfHn3/PrhIV6aKcIkB0HGJAdBxiQHQcYkB0BX4zLnPoEwV4RIDoOMSA6DjEgOg4xIDoCugTClTK0BXQJlSplaAroAypUytAF0BZUqZWgG6AsqUMrUCdAWUKWVqBegKKFPK1ArQFVCmlKkVoCugTClTK0BXQJlSplaAroAypUytAF0BZUqZWgG6Atlz/7Fl2D7bnxuprns8HWWqCJcYAB2XGAAdlxgAHZcYAF2B5Lm/bhk+IV/ad/hGcIkB0HGJAdBxiQHQcYkB0BVInvvrlmF2erZuqkGu/nwCercMdfRuGero3TLU0btlqLsrXGIAdFxiAHRcYgB0XGIAdCUYgpjrluHLjvTdw+A3Z4QIOc5ahj/Ey54ZlSlRx6/Kp5ZhPOPtLWFtuCdNCCGEEEIIIYQQQgghNshu9/8BB3A4T2DCtQAAAAAASUVORK5CYII=;" parent="1" vertex="1">
          <mxGeometry x="378.000712446733" y="78.84680775035497" width="300" height="211.26" as="geometry" />
        </mxCell>
        <mxCell id="3sAKrGf5FiUx43U5iRsO-9" value="" style="shape=image;verticalLabelPosition=bottom;labelBackgroundColor=default;verticalAlign=top;aspect=fixed;imageAspect=0;image=data:image/png,iVBORw0KGgoAAAANSUhEUgAAAlIAAAGjCAMAAAGnIDv2AAAAAXNSR0IArs4c6QAAAARnQU1BAACxjwv8YQUAAABmUExURf////n5+WxsbFlZWcXFxfz8/IuLi42NjdfX12BgYPHx8enp6WRkZKurq7+/v1xcXHp6etvb26Ojo3l5efj4+MLCwvX19WhoaHh4eAAAAHAwoERyxNnZ2QCwUMAAADg4OCAgIAAAAOw0U2IAAAAidFJOU////////////////////////////////////////////wAN0MNxAAAACXBIWXMAABcRAAAXEQHKJvM/AAAbUklEQVR4Xu3d7W7iSLSFYSRQhBCJRP/qPqPTOfd/lae2/VJFTC2znUDiTtYzrUymZo0pb9bkixg263XcPG159w7iUH/Gd+/iWx3rfwLvX/jKY/0Xro/1fChv7nSsU7y507EGuWP9Df8bfKyM28falv+5/+xOxa03vWON/4ZDDTz7s08+VtyPvDvv5rGOcYd69mcfOdY0+85jRfY9xyp35H2O9byLtxwrspvIvntfhY919qnH2r6UN3/2g8juI7uP7D6y478Y9Y5VPhWUP+OhRp792Wcea7t5fb3fvi6+vv/wsYKPdfapx3o+PN/tWMPHe/t8ZfD3+s79Zbt74l2buCr8+93nUN3/TYt33IPiUC/3O1TejY9DS/z0Q5Uvu+LP22/KxZs41CkOdYpDneJQ47/hWAvc2NUSP/5Q2038CC7l9q7S/zvfPlTadzvUVfRdh+pHbxyqf/e961DbXfua4UZ0yQn6UJ95qPK1+6l+390+dl99Wz75tn0X/3742N75kj2iqznB6lse6uXi6/aPH6p+cPjgoS75UP/moeIndmaj4Sv4d3wZ/2n4AdTKeFd5n7er+GA34J/nPHpX8dF38M/uarvZbQ7DVw5/4mcAD8Se+MnCgH8zGHZz7TGzik+dgxXcg/G5fOBd3cSevtWunrebX+fPziua1fjdxDHe+B4E6TneFUjP8a5A+toxvpF7jvc8K5Ce412B9Jx/dFcc9L/27QD/4hp7+l67Kl8ulE/Qww8Px1/EncFB/zvVL7z5F9fYEz9LHtzj63YO+rd94b2Ge5CDeld93hVIXxsel/0db9a0q/jCfXxUwfcgSM/xrkB6jncF0lfKJ8Vt7zt6DupZ9XlXID3HuwLpOWva1bY+NPvna7ELM/ta8dX606n+JtAqHDe7zfFJfXf/RY7li6q49ngFVvnx05vK8qayvnxTfEX15ksqb6qHPa1hU3xBLL6i9qYa9pTa1NNn/WIne0pt6sRPOuIqo4diT+JxjDebeh4uWf8M7GkNneLb0Zvfz37CpvgeecE32d4Ue/KmBPbkTd3Enrypm9jTuzY1PPq3fcB3yOzpXZuKX+fdbvhZQnxabJf3fuwNe/p7Gq4iCxefkIfrycLlf9M2Nfwq4fCbhHfGnlz0m9iTN3UTe/KmbmJP3tRN7Mmbuok9vXdTx5fN4ZX374c9vXtS5WuE+3+ZwJ7evan4Bjn9xBJZ7MlFv4k9eVM3sSdv6ib29OM3xTHfHvUN9vT4TXHMclSO6U0JHPPhm3qOz3rZb9s55sM3NfxW0PmzcXzzPIdjql/If4M9/T3VX+i/8XP0XdtUmdHLC9cBvsExy6lyzHKqHPPhk5I4pjd1E8f0pm7imN7UTRzTm7qJY3pTF563m+frz8gc88smVXY0fkoen2JtxDH//t1xTJ5SbTA879qA9DX+67/7+nP0fecT8m74Gfr45+2mOp+Ov35SXRzTm7qJY3pTN3FMb+omjulN3cQxvalqePR4d/171hzzSzY1PBNG78foHPOLNjVu6Orn6BzzSzYlcUxv6iaO6U3dxDG9qZs4pjd1E8f0pm7imF+2qafNYV1fJYTyKXncFBe6fpVhD/h1+Wz7ZmZm9kWezz9K3z1t3vMKVz9H+bolXibmdBgH1r6M4eucH4ohXDo9l+m8xEvqPMWsLibF33+kRSfvSWV5UlmeVJYnleVJZX3HSfEzqIb1K57UFOtXPKkp1q/8qEnxc9+mrDGfZoxe86Smxug1ffLH1/GZVJ7aL555Uj3H8v1fjGrLzxWCJ9VTJvUSD9IUY7cKTyrrX5oUj981ZY35NGWN+TTDf93xLSbF45tNWWM+TVljPk1ZYz5NHLDHk5qKA/Z4UlNxwB5PaioO2ONJTcUBezypqThgjyc1FQfs8aSm4oA9ntRUHLDHk5qKA/b0Tj6+5YvHRePb4zePtntSE+cfIwzv8WbgSU1tt6fNbneKFwQY3px5UlmeVJYnleVJZXlSWZ5UlieV5UlleVJZnlSWJ9UTv5Q+Xku+/t8dZj5NWWM+TVljPk1ZYz5NHLBHnnx8zzd+m3wxqdPlE/WsB/Np9u1J9Kt9exqg6rRrz/B3dvnMQJd/5KSGX0rfvRzdKSw6eU8qy5PK8qSyPKksTyrLk8rypLIeMik22LC+APNpyhrzacoa82nKGjfaxAF7PndSbLApa2ywGaNLMJ+mrDGfpqxxo01Z40abOGCPJzUVB+zpnvxx/HXheKhv93rxgJ8nNdEeQ773o+1ssClrbLAZo0swn6asMZ+mrHGjTVnjRps4YI+YVPwq+vmXE/jhS7FoUmywKWtssClrbLAZ/utFmE9T1rjRpqxxo01Z40abOGDPopOXYTbYlDU22JQ1NtiUNTbYxAGX4UabssaNNmWNG23KGjfaxAF7PKmpOGCPJzUVB+zxpKbigD2e1FQcsMeTmooD9nhSU3HAHk9qKg7Y40lNxQF7PKmpOGCPJzUVB+yRJ3/+5i/1yCgbbMoaG2zKGhtsyhobbOKAy3CjTVnjRpuyxo02ZY0bbeKAPXOTGn+g0AblSfWNv5T+tM38fIoNNmWNDTZljQ02ZY0NNnHAZbjRpqxxo01Z40abssaNNnHAHj2pDk8qy5PK8qSyPKksTyrLk8rypLI8qSxPKsuTmuBX0Q/P5fuY3GPIbLApa2ywKWtssClrbLCJAy7DjTZljRttyho32pQ1brSJA/b0Tj4GdPHN8cX3ffF66vwO+BtssClrbLA57T72C+H9P+mbL2vcaFOOwI02bw9//tP/fXR+FX2YUe750dlgU9bYYFPW2GBT1thgEwdchhttyho32pQ1brQpa9xoEwfskSff40lleVJZnlSWJ5XlSWV5UlmeVJYnleVJZXlSXefnsH4d3g48qR4/hjwxN6nx9xIuJmVmZmZmZmZm1nP+FfTyt8tfR7ep38Ofzeb45pcS7Mph/N2NzeHkSc077cYB8WqQz+MPiYvff36yTmcOz8OkdvFykPHPw/+JQf/M/Sfonf1r/Fw4hlQ69fLeJyv5dpacvSeV5UlleVJZnlSWJ5XlSWV5UlmeVJYnleVJZX3LSfG7QBXL1zypCZaveVITLF/zpCZYvuZJTbB8zZOaYPnaj5oUvwdbxRoDqoZgjyc1MQR7PKmJIdjjSU0MwR5PamII9uizPz/M3q4G8aS6Lh9yhyfV8+Yhd3hSPeeH3I/jQ+6D4Sk4/mUMqIo1BlQNwR7ZqfEh99N2+8rHK3dKuHzIHZ5U1j81Ka7qq2KNAVWxxoCqWOvypCZiretbTIorRatYY0BVrDGgKtYYUBVrXZ7URKx1eVITsdblSU3EWpcnNRFrXZ7URKx1eVITsdblSU3EWpcnNRFrXZ7URKx1eVITsdblSU3EWpcnNRFrXZ7URKx1eVITsdblSU3EWpcnNRFrXZ7URKx1eVITsdbVO/vj5iWuqH3eHA/DozNnntTU+FBfweNYZ57UxPnh46dtjOzy5fvGFzRY25v9iQFVscyAqsgyoCr+awZUdW8i3nQmdWBSxfCoaH1o1J2aOv+aiyd1qXf2p/g/blv+xyvz2m6PrHpSeZ5UlieV5UlleVJZnlSWJ5XlSWV5UlmeVJYnleVJZXlSWZ5UlieV5UlleVJZnlSWJ5XlSWV5Un3b4VLtp8vH+/j76jCgKtYYUBVrDKiKNQZUxVqXPPv6UNZueG264En1nK/Yrg+SFp5Uz/kh983m2DoVjzvvV4gBVbHGgKr9/rRjQNXudNoxoGp4ZP36z80rtgOPJ7tTwnDFdnmzefLHqcGSs/eksjypLE8qy5PK8qSyPKksTyrLk8rypLI8qSxPKsuTyvKksjyprMdMih1WLC/BgKpYY0BVrDGgKta41SrWujypiVjr+txJscMq1thhNQSXYUBVrDGgKta41SrWuNUq1ro8qYlY6/KkJmKty5OaiLUuT2oi1rp6Z3/ggfbX4fq+1zu+di07rGKNHVZDcBkGVMUaA6pijVutYo1brWKtq3f29YH253tf284Oq1hjh9UQXIYBVbHGgKpY41arWONWq1jr6px9e6Ddk7rQOfv2QPvw9ld9NfKPP9o+brCJNXZYDcFlGFAVawyoijVutYrz4VarWLsSD7f3OnV+oJ0+vfPRdnZYxRo7rGKNHVaxthADqmKNW61ijVutYo1brWKtq3f22/GB9mFQuVcjZ4dVrLHDKtbYYRVr7LCKtYW41SrWuNUq1rjVKta41SrWupb0xJPK8qSyPKksTyrLk8rypLI8qSxPKsuTyvKksjypLE8qy5PK8qSyPKksTyrLk8rypLI8qSxPKsuT6uJJ0p/Oj2UVnlRXe5J0P4o1UGd/qg+5XzxDczycGo/FXmGH1b4E2WEVOXZYxRo7rGJtIW61Kjf/iVdsnx9yf66XIbtTfb/HNg0frOBJddUnSd8mnkmeHVaxxg6rWGOHVayxwyrWFuJWq1jjVqtY41arWONWq1jr0md/zZPK8qSyPKksTyrLk8rypLI8qSxPKsuTyvKksjypLE8qy5PK8qSyPKksTyrLk8rypLI8qSxP6sp4xfbmKR7zS12xzQ6rWGOHVayxwyrW2GEVawtxq1WscatVrHGrVaxxq1WsdfXOniu2j+0y25EnNVEfFN15Uhc6Z1+rFI+4T6/Y5vHtCXZYdR/uPn3o4W7xp3/z+96j7dcP9scRuNXq7eHbn9krtmNkReKKbXZYxRo7rGKNHVaxxg6rWFuIW61ijVutYo1brWKNW61irat39lyxPXTKV2yf6bO/5klleVJZnlSWJ5XlSWV5UlmeVJYnleVJZXlSWZ5UlieV5UlleVJZnlSWJ5XlSWV5UlmeVJYnleVJ9V085A5Pqqs+5O5JjdTZt4fcPamROvvJQ+6D1z8/2f8xhan2kHublHVdPuRuZmZmZmZmZmZmZmZmZmY/1WH7vNm8bMcL28PL9nc88/dp255U3myBY2lU9OhcoF+/N0+ulL3fbvz4xN82Q52GSu22wbWypQ5jl07b8bemho9ZQ6VGx/buGb+xZj8RHZj3NDwx0PgWtyrFO/bTZO/60/kT3AsfqTZ8eV5cFu3MlfqxHnXXu1I/litld+ZK2Z25UnZnrpTdmStld+ZK2Z25UnZnrpTdmSv1w/EMLBq5PFfqh6M4Grk8V+qHozgauTxX6oejOBq5PFfqh6M4Grk8V+qHozgauTxX6oejOBq5PFfqm+IpWzVyFEcjl+dKfVMURyNHcTRyea7UN0VxNHIURyOX50p9UxRHI0dxNHJ5rtQ3RXE0chRHI5e3+K4/xUV8u/NlMsXL9uLyq8qV+mIURyNHcTRyeUvv+oO6lH3ClfpiFEcjR3E0cnlL7/rppexxNV+/Uif7ShRHI0dxNHJ5iz9KnS9lH/42fszyR6kVojgaOYqjkctbfNd3LmX/5UqtD8XRyFEcjVze8ru+Xcr+evHJb8qVehBe3EwjR3E0chRHI5f3qLvelXoQiqORozgaOYqjkctzpVaCl1vUyFEcjRzF0chRHI1cniu1EhRHI0dxNHIURyNHcTRyea7USlAcjRzF0chRHI0cxdHI5blSK0FxNHIURyNHcTRyFEcjl+dKrQTF0chRHI0cxdHIURyNXJ4rtRIURyNHcTRyFEcjR3E0cnmu1EpQHI0cxdHIURyNHMXRyOW5UitBcTRyFEcjR3E0chRHI5fnSq0ExdHIURyNHMXRyFEcjVyeK7USFEcjR3E0chRHI0dxNHJ5rtRKUByNHMXRyFEcjRzF0cjluVIrQXE0chRHI0dxNHIURyOX50qtBMXRyFEcjRzF0chRHI1cniu1EhRHI0dxNHIURyNHcTRyea7USlAcjRzF0chRHI0cxdHI5blSK0FxNHIURyNHcTRyFEcjl+dKrQTF0chRHI0cxdHIURyNXJ4rtRIURyNHcTRyFEcjR3E0cnmu1EpQHI0cxdHIURyNHMXRyOVl7/rDcft6vnZvs/m93b4eD+WdXXlnu93Gu2+5UgtRHI0cxdHIURyNHMXRyOUl7/pfx3j75lKrXVwmI18u25VaiOJo5CiORo7iaOQojkYuL3fXn46XF4QOTvEy/2OvelyphSiORo7iaOQojkaO4mjk8nJ3/fSy9XBsT4tw8aQbZ1zAvhveBr83895+v6c42pDenyiOtt8PSYqjlUzcNsXR2Krc++DyvVylDsOHpIsn1wjt0+CbT4gjf5RaiOJo5CiORo7iaOQojkYuL3nX76JTQ6PiGuNjfFT6Hf/0FO89+cvzj6M4GjmKo5GjOBo5iqORy3vUXe9KLURxNHIURyNHcTRyFEcjl+dKrQTF0chRHI0cxdHIURyNXJ4rtRIURyNHcTRyFEcjR3E0cnmu1EpQHI0cxdHIURyNHMXRyOW5UitBcTRyFEcjR3E0chRHI5fnSq0ExdHIURyNHMXRyFEcjVyeK7USFEcjR3E0chRHI0dxNHJ5rtRKUByNHMXRyFEcjRzF0cjluVIrQXE0chRHI0dxNHIURyOX50qtBMXRyFEcjRzF0chRHI1cniu1EhRHI0dxNHIURyNHcTRyea7USlAcjRzF0chRHI0cxdHI5blSK0FxNHIURyNHcTRyFEcjl+dKrQTF0chRHI0cxdHIURyNXJ4rtRIURyNHcTRyFEcjR3E0cnmu1EpQHI0cxdHIURyNHMXRyOW5UitBcTRyFEcjR3E0chRHI5fnSq0ExdHIURyNHMXRyFEcjVyeK7USFEcjR3E0chRHI0dxNHJ5rtRKUByNHMXRyFEcjRzF0cjluVIrQXE0chRHI0dxNHIURyOXt/iuHy4JrS+X/Ssuxjr6CpmPozgaOYqjkaM4GjmKo5HLW3rXX71cdvH28r6RK7UQxdHIURyNHMXRyFEcjVze0rt+et3x03Y7XjY64UotRHE0chRHI0dxNHIURyOXt/ij1Nily2dHKJ/5rl+JNi5g340XNu/9J/GH4mhDLHMB+xD7qldgL3f44kp1Xi770K0U71gOxdHIURyNHMXRyFEcjVze8ru+vVx2+Uh1iqeXun5GBFdqMYqjkaM4GjmKo5GjOBq5vEfd9a7UQhRHI0dxNHIURyNHcTRyea7USlAcjRzF0chRHI0cxdHI5blSK0FxNHIURyNHcTRyFEcjl+dKrQTF0chRHI0cxdHIURyNXJ4rtRIURyNHcTRyFEcjR3E0cnmu1EpQHI0cxdHIURyNHMXRyOW5UitBcTRyFEcjR3E0chRHI5fnSq0ExdHIURyNHMXRyFEcjVyeK7USFEcjR3E0chRHI0dxNHJ5rtRKUByNHMXRyFEcjRzF0cjluVIrQXE0chRHI0dxNHIURyOX50qtBMXRyFEcjRzF0chRHI1cniu1EhRHI0dxNHIURyNHcTRyea7USlAcjRzF0chRHI0cxdHI5blSDxjqe1AcjRzF0chRHI0c56iRy3OlXKl55PK+caUYnUaO0WnkHoviaOQojkaOc9TIcY4auTxXypWaRy7PlXKl5pHLc6VcqXnk8lwpV2oeubzkXX+Ki4zbZetPcaFMXGl16ly7PnClFqI4GjmKo5HjHDVynKNGLi931/cvWy9tWvPLZTM6jRyj08g9FsXRyFEcjRznqJHjHDVyebm7vvNy2ePLHQ8X9fVqxctlx9Wn+y/C6DRyjE4j91gURyuZGCXF0YajJc5+vBZ8xzlq5BJ/kPwodXXZ+q/LHn3u1caMTiPH6DRyjE4j91gURyPHOWrkOEeNHOeokctLVmpy2frL6+VTa3zyBeyMTiPH6DRyjE4j91gURyPHOWrkOEeNHOeokcvL3vW77fb1eL5sPZ6upRi+SC/udAE7o9PIMTqNHKPTyDE6jdxjcY4aOc5RI8c5auQ4R41c3qM+mrhSC3GOGjnOUSPHOWrkOEeNXJ4r5UrNI5fnSrlS88jluVKu1Dxyea6UKzWPXJ4r5UrNI5fnSrlS88jluVKu1Dxyea6UKzWPXJ4r5UrNI5fnSrlS88jluVKu1Dxyea6UKzWPXJ4r5UrNI5fnSrlS88jluVKu1Dxyea6UKzWPXJ4r5UrNI5fnSrlS88jluVKu1Dxyecvv+sPxdXu+7HhzeCr/cH19jCu1GOeokeMcNXKco0aOc9TI5S296w+/uPzq4sL1X/d5BXZGp5FjdBo5RqeRY3QaucfiHDVynKNGjnPUyHGOGrm8pXf96Xh13XGpFO9ccKUW4hw1cpyjRo5z1Mhxjhq5vKV3PV26fLns372n2njHy2UzOq2E4nCMTitHi78YnTbGEhewc8CH/sU5avu4gD1x9uPx/qWXyx5fwr894cbL68XHq8YfpRbiHDVynKNGjnPUyHGOGrm8xXf9Ljo1NCrKNPxTjyu1EOeokeMcNXKco0aOc9TI5b3jrk9xpRbiHDVynKNGjnPUyHGOGrk8V8qVmkcuz5VypeaRy3OlXKl55PJcKVdqHrk8V8qVmkcuz5VypeaRy3OlXKl55PJcKVdqHrk8V8qVmkcuz5VypeaRy3OlXKl55PJcKVdqHrk8V8qVmkcuz5VypeaRy3OlXKl55PJcKVdqHrk8V8qVmkcuz5VypeaRy3OlXKl55PJcKVdqHrm85F1/iith6stll/e25+v57vdy2YxOI8foNHKMTiPH6DRyj8U5auQ4R40c56iR4xw1cnm5u/765bJPY73u+XLZjE4jx+g0coxOI8foNHKPxTlq5DhHjRznqJHjHDVyebm7/vrlsrnceOblsnknj9Fp5BidRo7RaeQYnUbusThHjRznqJHjHDVynKNGLi/5UepcoFqpN0+K0H1t4/Fq5vEK9tRfjE5LX8I9XunO6LQhdfdLuJdKn/2Y5Rw1jsc5auOt3/ns4+5OVmryctlv2nWvl8tmdBo5RqeRY3QaOUankXsszlEjxzlq5DhHjRznqJHLy9718QX58AkuXi57/HS3/X0Yl/1y2XfAOWrkOEeNHOeokeMcNXJ577jrU1yphThHjRznqJHjHDVynKNGLs+VcqXmkctzpVypeeTyXClXah65PFfKlZpHLs+VcqXmkctzpVypeeTyXClXah65PFfKlZpHLs+VcqXmkctzpVypeeTyXClXah65PFfKlZpHLs+VcqXmkctzpVypeeTyXClXah65PFfKlZpHLs+VcqXmkctzpVypeeTyXClXah65PFfKlZpHLm/xXa8uZZ9wpRbiHDVynKNGjnPUyHGOGrm8pXd971J2V+oOOEeNHOeokeMcNXKco0Yub+ldLy9ln/izHKPTyDE6jRyj08gxOo3cY3GOGjnOUSPHOWrkOEeN3BJ0IOnGpexmCx24iF1cym72DsPV65NL2Y/jvzIzMzMzMzMzMzNbk83m/wG1qhsTCP7obAAAAABJRU5ErkJggg==;" parent="1" vertex="1">
          <mxGeometry x="666.9977023654512" y="78.48246157045712" width="300" height="211.62" as="geometry" />
        </mxCell>
        <mxCell id="3sAKrGf5FiUx43U5iRsO-10" value="" style="shape=image;verticalLabelPosition=bottom;labelBackgroundColor=default;verticalAlign=top;aspect=fixed;imageAspect=0;image=data:image/png,iVBORw0KGgoAAAANSUhEUgAAAlIAAAGjCAMAAAGnIDv2AAAAAXNSR0IArs4c6QAAAARnQU1BAACxjwv8YQUAAABmUExURf////n5+WxsbFlZWcXFxdfX12BgYPHx8enp6WRkZKurq7+/v1xcXNvb26Ojo3l5efj4+Pz8/IuLi3h4eAAAAI2NjXp6esLCwvX19WhoaHAwoNnZ2URyxACwUMAAADg4OCAgIAAAANuwO1sAAAAidFJOU////////////////////////////////////////////wAN0MNxAAAACXBIWXMAABcRAAAXEQHKJvM/AAAbl0lEQVR4Xu2d0VLjuhJFqXJSqUCZB5inW/cc7v9/5VXLK5LjqJU2GDDDXofDMD0bubW9SXBsxQ+7ZuDPj3Me06c/09eboLGiPD4Myfzv7Ou/xn8MCjO+fqx/jX+MHzbW4yl92mgs+3H82/3K7HGsMfzzeH8s4/eOtdR+6VjDU3p+/HNcYNqjafl7pjXWeBjTB2Nlbvoy7VZz3OFYpt1gLNN+aKyX9P+fMWPao2lH046mnf5hojXW9C/TSBNb9WX89WPZz9D01UfHOo9P8r7ylWOl3zHTLydb9WWHHfL+wpeO9Xh63GysA3+Kr2bY8Mg9PzuKr2Xb3XfmyxU0f+Lfx4eHuvM4tIYvHeqVP+9yd6in8M/g/a7C/Pahrn6lv8PXdbWGXQx1I/3qoUaOwS+Y9OYAPR+h5wO//O8H+/d8fN5NgUk3muDuhupIVwx1T3rn35P76akw7YWESTuH5vnfx9a/M9YMk+5jgnN2NNTs94+PDjVDQ33ZUPNfID841PwXyA8ONUdDfeFQT/wpROL8cFj16+1XwwtQO0NdxVFXd8g/fnZhRupq+jX1C7Anhgx/z1gLDT7bK3umyuSnqwz/0uPv78qeyzP5CT2jrhzo6d1dDekXo1N+bW3Ln0F64mg0kw9JM/VnMB/V8il3c4v2IKDuoa4A9ZJzOgZ4e3jLB4Y78mo6Mpl+BvOX20BPylUAelJX0yvMBn+9hZ7e3ZVdwjm9OHO3Kwb97xd0lX/88os8e+qqoq4AdQ+nKwb9Zw9dMei/39NVDvv0G9d+unocDna5zO0jA4N+k1cz1BWg7qGuAPUtZ/vFT2lXVwv4bnX1+V2lp8Dh8gokF0FkGPTfYz7ZbhzLyxf1JcTp4oibj/rt07n6TL6kIpOvq8jMvy23c4v2IKDuoa4AdY89dWWvQE78+V7oQgjx3ZwPD+P8Cp59MO7xmoGdXNmyy8dPNRVFTUVRU1HUVJTaVD498rKLp5na1PBweHh54QnZztd/DRw6XF2rU5vKr2LnT18AxzPOAdE3ZYqe1NRd6On7muIYecVBtpqiJzXlQE9/V1PpAX37VfP09O6myrXiB56FtoCe/j2Wi+TGxqvMSZg3ap+umnocPuPAj54U9LvQk5q6Cz2pqbvQk5q6Cz29r6l0HDOcDtu/vEhP72oqXw7w+AnHffT0zqZSQ+kZOR+Ubgk9Keh3oSc1dRd6UlN3oaevbIoxr0e9gp7U1AX+fgs9vbepx+HhmS/vwJhpVMb8RKfSE83b9AUX4XgwJu9gkuFfbqGn+YU85fvnh1jTRTg3h1jxVxcZ80ucCsOYauoujKmm7sKYe2iKMdOojKmmrmDMNCpj/vamHu04Zrrc8xrG/Jam8uVvl+Mre6HvAmPOryJtraFFfQvf/e947+XFQm0qefT02Hr2Y8xvccqFMdXUXRhTTd2FMdXUXRhTTc0Ynh5Oty8vMua3OdV8cZExv62p9Ox3ex6LMb+tqSaMqabuwphq6i6Mqabuwphq6i6M+S1N2YHM0HqiYcxvaWpaYXS5epGXBg3GvLdQr748ePXxsZcX3ZcWGfNbnHJhTDV1F8ZUU3dhTDV1F8ZUU3dhzG9r6mWnx31TUyx0/S5yD/A8HGhKCCGEEN/M43Rg2r/nj0ikX17GaaFK/TWG33N+KZhww/hor8DYDdxmTvHnr2TV5OVUFDkVRU5FkVNR5FQUORVFTkWRU1Hk1ILzw8OTHcjY9Z5Xx31yakFyyt6iPP2RT96WW0L+eKc4l1BJNc4qVCbpLc3JD8M4pSplapi9zi+nosipKHIqyk9yijOdlVTDn0qq4U8lf3eDv8IpzgRXUg1/KqmGP5VUw5+KDdhCTi2xAVvIqSU2YAs5tcQGbCGnltiALfzJn3lvrJd6laWcapGOYUazapgOaTJyqoUdJtuFVImyXkVORZFTUeRUFDkVRU5FkVNR5FQUORVFTkWRUwvswsXpXVSGn3EWC38qqYY/lVTDn0qq4U/FBmzRmrxduDgdweTzMrNr8sbx3nuvfQv4U0lt4k8l6fCnMh7q2+RcKEsxFx8tp/KFi4endOSXD4/3f/Ui/lRSDX8qqYY/lVTDn4oN2GLV5OVUFDkVRU5FkVNR5FQUORXlU5yiwQr1FeBPJdXwp5Jq+FNJNTZasQFbyKklNmCLr3WKBiupRoOVSboG/KmkGv5UUo2NVlKNjVZswBbu5Dk3k9jwd3QarKQaDVYm6Rrwp5Jq+FNJNTZaSTU2WrEBW/Sc4uAvfQVyqoldwng4bHv1Ig1WUo0GK5N0DfhTSTX8qaQaG62kGhut2IAtVk1eTkWRU1HkVBQ5FUVORVklpsFKqtFgJdVosJK/exX4U0k1NlpJNTZaSTU2WrEBW8ipJTZgi22cosFKqtFgJdVosJJqNFixAdfBRiupxkYrqcZGK6nGRis2YIvm5KeLy072S+fhbfarp5xaUA9kouf7aLCSajRYSTUarKQaDVZswHWw0UqqsdFKqrHRSqqx0YoN2MJxKh8cP012cZY0IaeiyKkociqKnIoip6LIqShyKoqciiKnosipFvNLGC/IqRbJn+ngrx7M2NWL0+WCS2iwcjyWO+IVUo0GK2Pj8kHGXAEbrRy/6OrFzOE5mfX0dEjZKihTUeRUFDkVRU5FkVNR5FQUORVFTkWRU1Hk1AI7N5PfRN6OaHQWCxynpkO+6dg4cPUiDVZSjQYrqUaDlVSjwYoNuA42Wkk1NlpJNTZaSTU2WrEBWzQnP124eBqG4RS7epEGK6lGg5VUo8FKqtFgxQZcBxutpBobraQaG62kGhut2IAt3Mm3kFNR5FQUORVFTkWRU1HkVBQ5FUVONbm8P95b/pyRUy0WhzQZOdXicgnj3CkhhBBCCCGEEEIIl+mU6DA/MypavOYPveZyl9PT5JKcusd4uLj0OL1InHj985vxMnN6LHmyH8KM/5r7b8Cd/Zu9ODw8PEWWtv8K1sxeTkWRU1HkVBQ5FUVORZFTUeRUFDkVRU5FkVNR5FQUORVFTkWRU1HkVBQ5FUVORZFTS84Ph3yW4en1+tyMnFpyOdnwenWbQzl1w+UE1ku+IeT8DZrHvxCu1y9QvqXh1AmnHs2pxPQ58eMzxcqGgtUwqJCFLVqz50T7xSM5lWnNPq9nn37+0k9f4E0AfgoYVLAaBhWysMWa2cupKHIqipyKIqeiyKkoP8opVooWrIZBBathUMFqTf4Kp1hTW7AaBhWshkEFq2FQwWpN5NQCqzWRUwus1kROLbBaEzm1wGpN5NQCqzWRUwus1kROLbBaEzm1wGpN5NQCqzWRUwus1sSf/cDbKdV3VZJTTS4vpp/Ly+hyqsnlBM1plFMT3uwvJ/2Gemomn+872KmvnX26ud+M1TGoYEIMKti3Y1DBvreJm6npRPI4zE6NKlNNhmnV2ux0n5wKI6eiyKkociqKnIoip6LIqShyKoqciiKnosipKHIqipyKIqeiyKkociqKnIoip5acphNYr/kC/uFt/+/UhUEFq2FQwWoYVLAaBhWs1qQ1+7Ia5DC9PnxBTi24vO1i/iynLjRmX9928Wy3UXku7704rVo77g8MKoyH4xGDCqbDoMKheRbLqjcf7VVri7ddnH4SE8rUknwC683ednH8Ge+9iEEFq2FQwWoYVLAaBhWs1mTN7OVUFDkVRU5FkVNR5FQUORVFTkWRU1HkVBQ5FUVORZFTUT7HKTosUF4DBhWshkEFq2FQwWpstWC1JnJqgdWayKkFVmsipxZYrYmcWmC1Jl/rFB0WrEaHhSxcBwYVrIZBBaux1YLV2GrBak3c2Z8fnuxUw+PDecNXh+mwYDU6LGThOjCoYDUMKliNrRasxlYLVmvizr6cdpjuc2/IqRYjJ/1ehmQZ5LNY+bTRe6HDgtXosJCF68CgwjG1iUEF07HVgp2gYquF+amr+Ye/Fquc9NvyHQXpsGA1Oixk4TowqGA1DCpYja0WrMZWC1Zr4s7+1R6qMnIq486eN2Dc9r0X6bBgNTosZOE6MKhgNQwqWI2tFqzGVgtWa7Jm9nIqipyKIqeiyKkociqKnIoip6LIqShyKoqcirLOKTqspBodFkxHhwWrrQSDClZjowWrsdWC1dhqwWpN5NQCqzWRUwus1kROLbBak22cosNKqtFhJdXosGDfS4cFq62EjRasxkYLVmOrBaux1YLVmsipBVZrIqcWWK1Jc/bTqrWXt9f0ZWjVGh1WUo0OK6lGhwX7XjosWG0lbLRgNTZasBpbLViNrRas1qQ1+2TQtFbm8XQ565CRUwvqaRk5NaMx+7pqLX9erFrLJ9iW0GGlccLtn8PXne87xs732XzYasFqDQ7dVWvkKbBqjQ4rqUaHlVSjw4J9Lx0WrLYSNlqwGhstWI2tFqzGVgtWa9KaPavWslGxVWt0WEk1OqykGh0W7HvpsGC1lbDRgtXYaMFqbLVgNbZasFoTf/a3yKkociqKnIoip6LIqShyKoqciiKnosipKHIqipyKIqeiyKkociqKnIoip6LIqTazU1kgp5rMT2WBnGpRT2U9y6mMN/vFqazMirNYjdNI/xzHAx0WbEEYHRYYcg1stGA1NlqwGlsttDZ/WaW2+Lh7B7G5UcpUG+4gNjNKToWRU1HkVBQ5FUVORZFTUeRUFDkVRU5FkVNR5FQUORVFTkWRU1HkVBQ5FUVORZFTUeTUghNvu3gYeK+8C3JqySNv/HZ5V8ELcmpBOYGVnbI3gQM7i2Ung26hw8oHzmJdnz2699Hc/Fe992I5KWpOJQLvKEiHlVSjw0qq0WHBvpcOC1ZbCRstWI2NFqzGVgtWY6sFqzVpzf5yol1OzWnNvrzt4vCaPukKjgl/9rfIqShyKoqciiKnosipKHIqipyKIqeiyKkociqKnIoip6LIqShyKoqciiKnosipNtOqtYeX6SViQ0414cX0My+mG3KqRTlBc5BTE97sr076wduf38z/cGFJWbU2c0o04Q0Y5ZQQQgghhBBCCCGEEEIIIYQQQojMaXh8eHgaDtPfxmGcvhDivZxToixTU5QUKfFRDtPjE3+kPw3FSryf05Sl0d7cpXAu751Q4Io18RshA1Fe8jtKTJ8vNCPFF+K3sX7Xj5enOvsdPf/lKl6gSP1aPmvXK1K/FkVKbIwiJTZGkRIbo0iJjVGkxMYoUmJjFCmxMYqU2BhFSmyMIiU2RpESG6NIiY1RpMTGKFJiYxQpsTGKlNiY6K4/nYfhjZVWmdfBrg625Qxvw3CaajMUqV9LcNc/59uu1ivOT+fDi0XKXXSlSP1aYrt+PLMuhsep8Tw+5EgdFKkfDu9f7oMuTmzXs2zvstTqcE7PdDlSmeerFVgTf+x2yGL/EBwfdHFikcqr1stjUl4Pmn6DKkm6XoKV0aPUN8MdFXzQERwfdHGCu/4wvRNCStTTJUj5USrfM+VFv57vD4Ljg47g+KCL81m7XpH6ZgiODzqC44MujiL1l0JwfNARHB90cRSpvxSC44OO4Pigi6NI/aUQHB90BMcHXRxF6i+F4PigIzg+6OIoUj8MbsHog47g+KAjOD7o4ihSO4E7ePqgIzg+6AiODzqC44MujiK1EwiODzqC44OO4PigIzg+6OIoUjuB4PigIzg+6AiODzqC44MujiK1EwiODzqC44OO4PigIzg+6OIoUjuB4PigIzg+6AiODzqC44MujiK1EwiODzqC44OO4PigIzg+6OIoUjuB4PigIzg+6AiODzqC44MujiK1EwiODzqC44OO4PigIzg+6OIoUjuB4PigIzg+6AiODzqC44MujiK1EwiODzqC44OO4PigIzg+6OIoUjuB4PigIzg+6AiODzqC44MujiK1EwiODzqC44OO4PigIzg+6OKs3vWjXTJ8mC1geBpen/lyhiK1EoLjg47g+KAjOD7oCI4Pujhrd/3p+uZpDw/Pr7O1MhVFaiUExwcdwfFBR3B80BEcH3Rx1u76svxqWtF3sji1I2Xrbw76FP1EcHzGYxYSHJ9xEhIcH7ZNcHxqi8FPqx+lriI1PWa96lHq4xAcH3QExwcdwfFBR3B80MVZHanGzdP0xLcBBMcHHcHxQUdwfNARHB90cdbv+rww1H6Terq87YYitQEExwcdwfFBR3B80BEcH3RxPmvXK1IrITg+6AiODzqC44OO4Pigi6NI7QSC44OO4PigIzg+6AiOD7o4itROIDg+6AiODzqC44OO4Pigi6NI7QSC44OO4PigIzg+6AiOD7o4itROIDg+6AiODzqC44OO4Pigi6NI7QSC44OO4PigIzg+6AiOD7o4itROIDg+6AiODzqC44OO4Pigi6NI7QSC44OO4PigIzg+6AiOD7o4itROIDg+6AiODzqC44OO4Pigi6NI7QSC44OO4PigIzg+6AiOD7o4itROIDg+6AiODzqC44OO4Pigi6NI7QSC44OO4PigIzg+6AiOD7o4itROIDg+6AiODzqC44OO4Pigi6NI7QSC44OO4PigIzg+6AiOD7o4itROIDg+6AiODzqC44OO4Pigi6NI7QSC44OO4PigIzg+6AiOD7o4itROIDg+6AiODzqC44OO4PigixPc9aNdZF6WWj3bFednuyfD2LgxQ0aRWgnB8UFHcHzQERwfdATHB12c2K6/WWqVyH/RzdO2guD4oCM4PugIjg86guODLk5s17PUij/s/o7D5UZFlyvRFyhSKyE4PugIjg86guODjuD4oIsTfJS6WmoF57KKoX5VyOv4DvnjqP8C/xEcn6MtkzveX8fHgATHx4ZLEBwfdEHC6/haS63uRYovRAyC44OO4PigIzg+6AiOD7o40V2fnuHeznmpVXqkGtOT3VuOV/1qgSK1EoLjg47g+KAjOD7oCI4PujiftesVqZUQHB90BMcHHcHxQUdwfNDFUaR2AsHxQUdwfNARHB90BMcHXRxFaicQHB90BMcHHcHxQUdwfNDFUaR2AsHxQUdwfNARHB90BMcHXRxFaicQHB90BMcHHcHxQUdwfNDFUaR2AsHxQUdwfNARHB90BMcHXRxFaicQHB90BMcHHcHxQUdwfNDFUaR2AsHxQUdwfNARHB90BMcHXRxFaicQHB90BMcHHcHxQUdwfNDFUaR2AsHxQUdwfNARHB90BMcHXRxFaicQHB90BMcHHcHxQUdwfNDFUaR2AsHxQUdwfNARHB90BMcHXRxF6hNMfQ8ExwcdwfFBR3B80DFHH3RxFClFqg+6OIqUItUHXRxFSpHqgy6OIqVI9UEXZ/2uP53fhnKjq9NL+ktr4dUOIoV1Puiwzgfd50JwfNARHB90zNEHHXP0QRdn7a4/PXMV+ixGV2uxQJFaCcHxQUdwfNAxRx90zNEHXZy1u348Xy+/SuQ79C1RpFZCcHzQERwfdMzRBx1z9EEXZ+2uX9w8LXNuPkpd1lxNa4C+4T+s80GIdT7oPvc/guODjuD4oGOOPtMiqY0XXdn+Xv3ENz0kXT/XXS/GyuhRaiUExwcdwfFBxxx90DFHH3RxVu/6g2UqJ8rudHW239Nf9LvUxyE4PugIjg865uiDjjn6oIvzWbtekVoJwfFBR3B80DFHH3TM0QddHEVKkeqDLo4ipUj1QRdHkVKk+qCLo0gpUn3QxVGkFKk+6OIoUopUH3RxFClFqg+6OIqUItUHXRxFSpHqgy6OIqVI9UEX5wdGCus6TDqs85lkilQfdHEUKUWqD7o4ipQi1QddHEVKkeqDLs6OIoV1HSYd1nWYdFjnM8kUqT7o4ihSilQfdHEUKUWqD7o4wV2fV8HUm6e9WMXu8rHlzdOwrsOkw7oOkw7rfCaZItUHXZzYrm/fPC2l6dC47DyjSK2EKfqgY4o+6JijDzrm6IMuTmzXL2+elpiWytg9ZJybp5VVOMcgWNfBVOP9ez39Y4uOjveXHdlwCazzQfe5MEWfNHXTMUWfPFpg9tOSuANz9EEX+zCCj1I3q/ee5zna5k5XWNdh0mFdh0mHdT6TTI9SfdDFCUZqcfO0p7fLmyIYJ0Xq4zBFH3RM0Qcdc/RBxxx90MWJ7vp8e1B7YLKbp73kpzv7/TyXN7p5GtZ1mHRY12HSYZ3PJFOk+qCL845dH0KRWglT9EHHFH3QMUcfdMzRB10cRUqR6oMujiKlSPVBF0eRUqT6oIujSClSfdDFUaQUqT7o4ihSilQfdHEUKUWqD7o4ipQi1QddHEVKkeqDLo4ipUj1QRdHkVKk+qCLo0gpUn3QxVGkFKk+6OIoUopUH3RxFClFqg+6OIqUItUHXZzVu95bfrVAkVoJU/RBxxR90DFHH3TM0QddnLW73l1+tUCRWglT9EHHFH3QMUcfdMzRB12ctbveXX61QJFaCVP0QccUfdAxRx90zNEHXZzVj1L95VcFbp7GnbxC/2Fdh6RKH1jX4Wgbvn/ztGnZ2f3bh10a/NT/mKIPOqbog445+kRnjy5I2ucrI3Vi4ZWz/KqiR6mVMEUfdEzRBx1z9EHHHH3QxVm/6/MC47z86u2y/Ort+eaXKUVqJUzRBx1T9EHHHH3QMUcfdHHesetDKFIrYYo+6JiiDzrm6IOOOfqgi6NIKVJ90MVRpBSpPujiKFKKVB90cRQpRaoPujiKlCLVB10cRUqR6oMujiKlSPVBF0eRUqT6oIujSClSfdDFUaQUqT7o4ihSilQfdHEUKUWqD7o4ipQi1QddHEVKkeqDLo4ipUj1QRdHkVKk+qCLE931p/PbcFlplTi9vLGsIZXfzloh82GYog86puiDjjn6oGOOPujiBHf983TF+Tn/xdbEsJ5Bd7raCqbog44p+qBjjj7omKMPujixXT+e8wPUbF0MX46K1EYwRR90TNEHHXP0QcccfdDFie3629V784V8z7NnxAu26OqY10iF/8O6DnkxVWjRVVJut+gK3SfB9Jmiz3Eykyn6MB5z9GHzzNEHXQy7f1osUqz+nK0xnj1g2RIsrZD5KEzRBx1T9EHHHH3QMUcfdHGCu/5gmcqJsqVWuZD/eLXPr4N9eY0itRKm6IOOKfqgY44+6JijD7o479j1IRSplTBFH3RM0Qcdc/RBxxx90MVRpBSpPujiKFKKVB90cRQpRaoPujiKlCLVB10cRUqR6oMujiKlSPVBF0eRUqT6oIujSClSfdDFUaQUqT7o4ihSilQfdHEUKUWqD7o4ipQi1QddHEVKkeqDLo4ipUj1QRdHkVKk+qCLo0gpUn3QxVGkFKk+6OKs3vXXN09LXw3zq9ALitRKmKIPOqbog445+qBjjj7o4qzd9bc3T7ta2FBQpFbCFH3QMUUfdMzRBx1z9EEXZ+2uv11+5UVqNVjXYdJhXYdJh3U+k+wP1vmg+1yYog86puiDjjn6oGOOPujWQAaC3N48bb6iT4i13Nw8zXuUEiJMvXlaylL+yzDwXglCCCGEEEIIIYQQQgixJx4e/g+lZiZn57ZLVwAAAABJRU5ErkJggg==;" parent="1" vertex="1">
          <mxGeometry x="956.997409362793" y="78.84785263061522" width="300" height="211.62" as="geometry" />
        </mxCell>
      </root>
    </mxGraphModel>
  </diagram>
</mxfile>
